<svg width="11" height="13" viewBox="0 0 11 13" fill="none" xmlns="http://www.w3.org/2000/svg">
<path d="M4.80438 10.3973L4.80438 0.771304C4.80438 0.349639 5.15716 0.0078125 5.5649 0.0078125C5.98492 0.0078125 6.32542 0.359928 6.32542 0.771304L6.32542 10.3783L9.31524 7.38846C9.60549 7.0982 10.092 7.09466 10.3899 7.39256C10.6791 7.68175 10.6897 8.17162 10.394 8.46726L6.15756 12.7037C6.13939 12.7269 6.11973 12.7491 6.09857 12.7703C5.94887 12.92 5.75152 12.9936 5.5554 12.9929C5.35926 12.9936 5.16192 12.92 5.01222 12.7703C4.99106 12.7491 4.9714 12.7269 4.95323 12.7037L0.716754 8.46726C0.421118 8.17162 0.431668 7.68175 0.720858 7.39256C1.01876 7.09466 1.5053 7.0982 1.79555 7.38846L4.80438 10.3973Z" fill="white"/>
</svg>
