<svg width="60" height="66" viewBox="0 0 60 66" fill="none" xmlns="http://www.w3.org/2000/svg">
<mask id="path-1-inside-1_862_4624" fill="white">
<path fill-rule="evenodd" clip-rule="evenodd" d="M24.7282 7.85376L24.6243 7.8983C24.6584 7.88248 24.6931 7.86763 24.7282 7.85376Z"/>
<path fill-rule="evenodd" clip-rule="evenodd" d="M36.5285 2.79239L36.4912 2.80839C36.5036 2.80293 36.516 2.7976 36.5285 2.79239Z"/>
<path fill-rule="evenodd" clip-rule="evenodd" d="M26.2159 37.0789L26.1249 37.1015L26.0995 37.1071L26.0346 37.1268L26.0046 37.136L25.9402 37.1582C25.7628 37.2238 25.6011 37.3127 25.4546 37.4222L25.4108 37.4531L25.3771 37.4819L25.339 37.5142L25.3053 37.543L25.2677 37.5779L25.2366 37.606L25.202 37.6429L25.172 37.6762L25.1381 37.7156C25.0167 37.8543 24.9175 38.0093 24.8381 38.1814L24.8117 38.2431L24.7995 38.2724L24.7762 38.3362L24.768 38.3593L24.7401 38.4507L24.7148 38.5416L24.6951 38.6339L24.6811 38.7275L24.6701 38.8232L24.6648 38.9203L24.6635 39.0112L24.6658 39.1066L24.6738 39.2035L24.6863 39.2967L24.7039 39.3887L27.5035 52.1189C27.6521 52.7951 28.1481 53.3416 28.8051 53.5542C29.4627 53.7694 30.1843 53.6213 30.7019 53.1637L40.7432 44.2932C41.2739 43.8221 41.5098 43.1013 41.3577 42.4099C41.2057 41.7185 40.6891 41.1632 40.0098 40.9581L27.1734 37.1188L27.1565 37.1145L27.0631 37.0898L26.9708 37.0701L26.8771 37.056L26.7814 37.0451L26.6843 37.0398L26.5934 37.0385L26.498 37.0408L26.4037 37.0482L26.308 37.0613L26.2159 37.0789Z"/>
<path fill-rule="evenodd" clip-rule="evenodd" d="M24.7282 7.85376L24.6243 7.8983L4.69944 16.4444C2.95598 17.1929 1.57946 18.6043 0.874345 20.3663C0.169226 22.1283 0.195097 24.0999 0.943605 25.8434C2.37124 29.1724 4.01962 33.0204 4.01962 33.0204C4.10722 33.2243 4.22538 33.4056 4.36645 33.5612C4.26726 33.8759 4.24659 34.2199 4.3225 34.5651L9.9127 59.9848C10.7619 63.846 14.5792 66.287 18.4404 65.4379L54.028 57.6116C57.8893 56.7625 60.3303 52.9452 59.4811 49.0839L54.4499 26.2062C54.1905 25.0267 53.4741 23.9984 52.4569 23.348C51.4367 22.6956 50.2027 22.4766 49.0232 22.736L16.0365 29.9903L24.8702 26.2012L24.8965 26.1899C34.4948 22.0728 44.9657 17.5816 48.4433 16.0903C49.2373 15.7505 49.8612 15.1096 50.1828 14.306C50.5025 13.5056 50.492 12.6098 50.1502 11.8189L46.5607 3.4463C46.0847 2.3358 45.1858 1.45952 44.0638 1.01073C42.9423 0.564486 41.6902 0.578671 40.5797 1.05474L36.5285 2.79239L36.4912 2.80839L24.7282 7.85376ZM38.1889 16.2395L46.306 12.7576L42.9735 4.98403C42.9041 4.82607 42.7751 4.69988 42.6146 4.63657C42.4567 4.57271 42.276 4.57513 42.1175 4.64197L39.1186 5.92824L38.1889 16.2395ZM26.3526 21.3169L34.1088 17.9897L35.0403 7.67749L27.2841 11.0042L26.3526 21.3169ZM22.2751 23.066L14.51 26.3969L15.4398 16.0845L23.2049 12.7539L22.2751 23.066ZM6.83899 29.6875L10.4324 28.1461L11.3628 17.8332L6.23717 20.0317C5.44569 20.371 4.81926 21.0124 4.50018 21.8154C4.18055 22.6159 4.191 23.5117 4.53084 24.3057L6.83899 29.6875ZM55.6682 49.9224L50.637 27.0447C50.6001 26.8769 50.4982 26.7288 50.3525 26.6356C50.2067 26.5424 50.0295 26.5121 49.8617 26.549L8.55472 35.633L13.7257 59.1463C14.1114 60.9002 15.8479 62.0107 17.6019 61.6249L53.1895 53.7987C54.9434 53.4129 56.0539 51.6764 55.6682 49.9224Z"/>
</mask>
<path fill-rule="evenodd" clip-rule="evenodd" d="M24.7282 7.85376L24.6243 7.8983C24.6584 7.88248 24.6931 7.86763 24.7282 7.85376Z" fill="white"/>
<path fill-rule="evenodd" clip-rule="evenodd" d="M36.5285 2.79239L36.4912 2.80839C36.5036 2.80293 36.516 2.7976 36.5285 2.79239Z" fill="white"/>
<path fill-rule="evenodd" clip-rule="evenodd" d="M26.2159 37.0789L26.1249 37.1015L26.0995 37.1071L26.0346 37.1268L26.0046 37.136L25.9402 37.1582C25.7628 37.2238 25.6011 37.3127 25.4546 37.4222L25.4108 37.4531L25.3771 37.4819L25.339 37.5142L25.3053 37.543L25.2677 37.5779L25.2366 37.606L25.202 37.6429L25.172 37.6762L25.1381 37.7156C25.0167 37.8543 24.9175 38.0093 24.8381 38.1814L24.8117 38.2431L24.7995 38.2724L24.7762 38.3362L24.768 38.3593L24.7401 38.4507L24.7148 38.5416L24.6951 38.6339L24.6811 38.7275L24.6701 38.8232L24.6648 38.9203L24.6635 39.0112L24.6658 39.1066L24.6738 39.2035L24.6863 39.2967L24.7039 39.3887L27.5035 52.1189C27.6521 52.7951 28.1481 53.3416 28.8051 53.5542C29.4627 53.7694 30.1843 53.6213 30.7019 53.1637L40.7432 44.2932C41.2739 43.8221 41.5098 43.1013 41.3577 42.4099C41.2057 41.7185 40.6891 41.1632 40.0098 40.9581L27.1734 37.1188L27.1565 37.1145L27.0631 37.0898L26.9708 37.0701L26.8771 37.056L26.7814 37.0451L26.6843 37.0398L26.5934 37.0385L26.498 37.0408L26.4037 37.0482L26.308 37.0613L26.2159 37.0789Z" fill="white"/>
<path fill-rule="evenodd" clip-rule="evenodd" d="M24.7282 7.85376L24.6243 7.8983L4.69944 16.4444C2.95598 17.1929 1.57946 18.6043 0.874345 20.3663C0.169226 22.1283 0.195097 24.0999 0.943605 25.8434C2.37124 29.1724 4.01962 33.0204 4.01962 33.0204C4.10722 33.2243 4.22538 33.4056 4.36645 33.5612C4.26726 33.8759 4.24659 34.2199 4.3225 34.5651L9.9127 59.9848C10.7619 63.846 14.5792 66.287 18.4404 65.4379L54.028 57.6116C57.8893 56.7625 60.3303 52.9452 59.4811 49.0839L54.4499 26.2062C54.1905 25.0267 53.4741 23.9984 52.4569 23.348C51.4367 22.6956 50.2027 22.4766 49.0232 22.736L16.0365 29.9903L24.8702 26.2012L24.8965 26.1899C34.4948 22.0728 44.9657 17.5816 48.4433 16.0903C49.2373 15.7505 49.8612 15.1096 50.1828 14.306C50.5025 13.5056 50.492 12.6098 50.1502 11.8189L46.5607 3.4463C46.0847 2.3358 45.1858 1.45952 44.0638 1.01073C42.9423 0.564486 41.6902 0.578671 40.5797 1.05474L36.5285 2.79239L36.4912 2.80839L24.7282 7.85376ZM38.1889 16.2395L46.306 12.7576L42.9735 4.98403C42.9041 4.82607 42.7751 4.69988 42.6146 4.63657C42.4567 4.57271 42.276 4.57513 42.1175 4.64197L39.1186 5.92824L38.1889 16.2395ZM26.3526 21.3169L34.1088 17.9897L35.0403 7.67749L27.2841 11.0042L26.3526 21.3169ZM22.2751 23.066L14.51 26.3969L15.4398 16.0845L23.2049 12.7539L22.2751 23.066ZM6.83899 29.6875L10.4324 28.1461L11.3628 17.8332L6.23717 20.0317C5.44569 20.371 4.81926 21.0124 4.50018 21.8154C4.18055 22.6159 4.191 23.5117 4.53084 24.3057L6.83899 29.6875ZM55.6682 49.9224L50.637 27.0447C50.6001 26.8769 50.4982 26.7288 50.3525 26.6356C50.2067 26.5424 50.0295 26.5121 49.8617 26.549L8.55472 35.633L13.7257 59.1463C14.1114 60.9002 15.8479 62.0107 17.6019 61.6249L53.1895 53.7987C54.9434 53.4129 56.0539 51.6764 55.6682 49.9224Z" fill="white"/>
<path d="M24.7282 7.85376L24.6296 7.62401L24.5258 7.66854L24.6243 7.8983L24.7229 8.12806L24.8267 8.08352L24.7282 7.85376ZM36.5285 2.79239L36.4299 2.56264L36.3926 2.57863L36.4912 2.80839L36.5897 3.03814L36.627 3.02215L36.5285 2.79239ZM24.7282 7.85376L24.9118 8.3188L24.9186 8.31614L24.9252 8.31328L24.7282 7.85376ZM24.6243 7.8983L24.8214 8.35781L24.8281 8.35496L24.8346 8.35191L24.6243 7.8983ZM36.5285 2.79239L36.7208 3.25396L36.7256 3.25191L36.5285 2.79239ZM36.4912 2.80839L36.6883 3.26793L36.693 3.26583L36.4912 2.80839ZM26.2159 37.0789L26.1221 36.5877L26.1085 36.5904L26.095 36.5937L26.2159 37.0789ZM26.1249 37.1015L26.2324 37.5901L26.2459 37.5867L26.1249 37.1015ZM26.0995 37.1071L25.9921 36.6188L25.9734 36.6229L25.955 36.6285L26.0995 37.1071ZM26.0346 37.1268L25.89 36.6481L25.887 36.649L26.0346 37.1268ZM26.0046 37.136L25.8571 36.6583L25.8495 36.6606L25.842 36.6632L26.0046 37.136ZM25.9402 37.1582L25.7775 36.6852L25.7666 36.6892L25.9402 37.1582ZM25.4546 37.4222L25.7432 37.8307L25.754 37.8227L25.4546 37.4222ZM25.4108 37.4531L25.1223 37.0447L25.1036 37.0579L25.0862 37.0728L25.4108 37.4531ZM25.3771 37.4819L25.7005 37.8632L25.7017 37.8622L25.3771 37.4819ZM25.339 37.5142L25.0156 37.1329L25.0144 37.1339L25.339 37.5142ZM25.3053 37.543L24.9807 37.1626L24.9728 37.1694L24.9651 37.1765L25.3053 37.543ZM25.2677 37.5779L25.6032 37.9486L25.6078 37.9443L25.2677 37.5779ZM25.2366 37.606L24.9011 37.2353L24.8856 37.2493L24.8714 37.2645L25.2366 37.606ZM25.202 37.6429L24.8368 37.3014L24.8308 37.308L25.202 37.6429ZM25.172 37.6762L24.8007 37.3411L24.7931 37.35L25.172 37.6762ZM25.1381 37.7156L25.5142 38.0451L25.517 38.0419L25.1381 37.7156ZM24.8381 38.1814L24.3841 37.9718L24.3811 37.9783L24.3783 37.9849L24.8381 38.1814ZM24.8117 38.2431L24.3519 38.0467L24.3501 38.0511L24.8117 38.2431ZM24.7995 38.2724L24.3379 38.0804L24.3336 38.0905L24.3298 38.1009L24.7995 38.2724ZM24.7762 38.3362L24.3065 38.1646L24.3052 38.1684L24.7762 38.3362ZM24.768 38.3593L24.297 38.1915L24.2931 38.2024L24.2897 38.2135L24.768 38.3593ZM24.7401 38.4507L24.2617 38.3049L24.2585 38.3165L24.7401 38.4507ZM24.7148 38.5416L24.2331 38.4073L24.229 38.4222L24.2258 38.4373L24.7148 38.5416ZM24.6951 38.6339L24.2061 38.5295L24.2029 38.5446L24.2006 38.5598L24.6951 38.6339ZM24.6811 38.7275L24.1866 38.6535L24.1853 38.6621L24.1843 38.6708L24.6811 38.7275ZM24.6701 38.8232L24.1734 38.7664L24.1717 38.7812L24.1709 38.796L24.6701 38.8232ZM24.6648 38.9203L24.1656 38.8931L24.165 38.903L24.1649 38.913L24.6648 38.9203ZM24.6635 39.0112L24.1635 39.0039L24.1634 39.0137L24.1636 39.0234L24.6635 39.0112ZM24.6658 39.1066L24.166 39.1189L24.1663 39.1333L24.1675 39.1477L24.6658 39.1066ZM24.6738 39.2035L24.1755 39.2445L24.1765 39.2573L24.1782 39.27L24.6738 39.2035ZM24.6863 39.2967L24.1907 39.3632L24.1926 39.3769L24.1952 39.3905L24.6863 39.2967ZM24.7039 39.3887L24.2126 39.4826L24.2155 39.4961L24.7039 39.3887ZM27.5035 52.1189L27.0151 52.2263L27.5035 52.1189ZM28.8051 53.5542L28.9606 53.079L28.959 53.0785L28.8051 53.5542ZM30.7019 53.1637L30.3709 52.789L30.3708 52.7891L30.7019 53.1637ZM40.7432 44.2932L41.0743 44.6679L41.0752 44.6671L40.7432 44.2932ZM40.0098 40.9581L40.1543 40.4795L40.1531 40.4791L40.0098 40.9581ZM27.1734 37.1188L27.3167 36.6398L27.3063 36.6367L27.2958 36.634L27.1734 37.1188ZM27.1565 37.1145L27.0283 37.5979L27.0341 37.5993L27.1565 37.1145ZM27.0631 37.0898L27.1912 36.6065L27.1794 36.6033L27.1674 36.6008L27.0631 37.0898ZM26.9708 37.0701L27.0751 36.5811L27.0601 36.5779L27.0449 36.5756L26.9708 37.0701ZM26.8771 37.056L26.9512 36.5616L26.9426 36.5603L26.9339 36.5593L26.8771 37.056ZM26.7814 37.0451L26.8382 36.5483L26.8235 36.5467L26.8087 36.5459L26.7814 37.0451ZM26.6843 37.0398L26.7116 36.5406L26.7016 36.54L26.6916 36.5399L26.6843 37.0398ZM26.5934 37.0385L26.6007 36.5385L26.591 36.5384L26.5812 36.5386L26.5934 37.0385ZM26.498 37.0408L26.4858 36.541L26.4723 36.5413L26.4588 36.5424L26.498 37.0408ZM26.4037 37.0482L26.3645 36.5498L26.3503 36.5509L26.3361 36.5528L26.4037 37.0482ZM26.308 37.0613L26.2404 36.5659L26.2272 36.5677L26.2142 36.5702L26.308 37.0613ZM4.69944 16.4444L4.50235 15.9849L4.50219 15.985L4.69944 16.4444ZM0.943605 25.8434L1.40313 25.6463L1.40305 25.6462L0.943605 25.8434ZM4.01962 33.0204L3.56002 33.2173L3.56023 33.2178L4.01962 33.0204ZM4.36645 33.5612L4.84332 33.7115L4.92955 33.4379L4.7369 33.2254L4.36645 33.5612ZM4.3225 34.5651L4.81083 34.4577L4.81083 34.4577L4.3225 34.5651ZM9.9127 59.9848L9.42437 60.0922L9.9127 59.9848ZM18.4404 65.4379L18.5478 65.9262L18.4404 65.4379ZM54.028 57.6116L54.1354 58.0999L54.028 57.6116ZM59.4811 49.0839L58.9928 49.1913L59.4811 49.0839ZM54.4499 26.2062L54.9383 26.0988L54.4499 26.2062ZM52.4569 23.348L52.7263 22.9267L52.4569 23.348ZM49.0232 22.736L49.1306 23.2243L49.0232 22.736ZM16.0365 29.9903L15.8394 29.5308L16.1439 30.4786L16.0365 29.9903ZM24.8702 26.2012L25.0673 26.6607L25.0673 26.6607L24.8702 26.2012ZM24.8965 26.1899L24.6994 25.7304L24.6993 25.7304L24.8965 26.1899ZM48.4433 16.0903L48.2466 15.6307L48.2462 15.6308L48.4433 16.0903ZM50.1828 14.306L50.647 14.4918L50.6472 14.4915L50.1828 14.306ZM50.1502 11.8189L49.6906 12.0159L49.6912 12.0172L50.1502 11.8189ZM46.5607 3.4463L46.1012 3.64331L46.1012 3.64332L46.5607 3.4463ZM44.0638 1.01073L44.2494 0.546493L44.2486 0.546163L44.0638 1.01073ZM40.5797 1.05474L40.3827 0.595183L40.3826 0.59522L40.5797 1.05474ZM38.1889 16.2395L37.6909 16.1946L37.6156 17.0295L38.386 16.699L38.1889 16.2395ZM46.306 12.7576L46.5031 13.2171L46.9625 13.02L46.7655 12.5605L46.306 12.7576ZM42.9735 4.98403L43.4331 4.78702L43.4313 4.78295L42.9735 4.98403ZM42.6146 4.63657L42.4272 5.10013L42.4311 5.1017L42.6146 4.63657ZM42.1175 4.64197L41.9232 4.18124L41.9204 4.18246L42.1175 4.64197ZM39.1186 5.92824L38.9215 5.46873L38.6474 5.5863L38.6206 5.88334L39.1186 5.92824ZM26.3526 21.3169L25.8546 21.2719L25.7792 22.1069L26.5497 21.7764L26.3526 21.3169ZM34.1088 17.9897L34.3059 18.4492L34.5799 18.3317L34.6068 18.0347L34.1088 17.9897ZM35.0403 7.67749L35.5383 7.72247L35.6137 6.8875L34.8432 7.21797L35.0403 7.67749ZM27.2841 11.0042L27.0871 10.5447L26.813 10.6623L26.7862 10.9593L27.2841 11.0042ZM22.2751 23.066L22.4722 23.5255L22.7463 23.4079L22.7731 23.1109L22.2751 23.066ZM14.51 26.3969L14.012 26.352L13.9368 27.1869L14.7071 26.8564L14.51 26.3969ZM15.4398 16.0845L15.2427 15.625L14.9686 15.7425L14.9418 16.0396L15.4398 16.0845ZM23.2049 12.7539L23.7029 12.7988L23.7781 11.964L23.0078 12.2944L23.2049 12.7539ZM6.83899 29.6875L6.37947 29.8846L6.57656 30.3442L7.0361 30.147L6.83899 29.6875ZM10.4324 28.1461L10.6295 28.6056L10.9035 28.488L10.9303 28.191L10.4324 28.1461ZM11.3628 17.8332L11.8607 17.8781L11.9361 17.0433L11.1657 17.3737L11.3628 17.8332ZM6.23717 20.0317L6.43417 20.4912L6.43427 20.4912L6.23717 20.0317ZM4.50018 21.8154L4.96453 22.0008L4.96484 22L4.50018 21.8154ZM4.53084 24.3057L4.07117 24.5024L4.07132 24.5028L4.53084 24.3057ZM55.6682 49.9224L55.1798 50.0298L55.6682 49.9224ZM50.637 27.0447L50.1486 27.1521L50.637 27.0447ZM49.8617 26.549L49.9691 27.0373L49.8617 26.549ZM8.55472 35.633L8.44733 35.1447L7.959 35.2521L8.06639 35.7404L8.55472 35.633ZM13.7257 59.1463L14.214 59.0389L13.7257 59.1463ZM17.6019 61.6249L17.4945 61.1366L17.6019 61.6249ZM53.1895 53.7987L53.2969 54.287H53.2969L53.1895 53.7987ZM24.6243 7.8983L24.8346 8.35191C24.86 8.34015 24.8858 8.3291 24.9118 8.3188L24.7282 7.85376L24.5445 7.38873C24.5004 7.40615 24.4569 7.42482 24.414 7.44468L24.6243 7.8983ZM36.4912 2.80839L36.693 3.26583C36.7023 3.26176 36.7115 3.2578 36.7208 3.25393L36.5285 2.79239L36.3362 2.33085C36.3205 2.3374 36.3048 2.3441 36.2893 2.35095L36.4912 2.80839ZM26.2159 37.0789L26.095 36.5937L26.004 36.6164L26.1249 37.1015L26.2459 37.5867L26.3368 37.564L26.2159 37.0789ZM26.1249 37.1015L26.0175 36.6132L25.9921 36.6188L26.0995 37.1071L26.2069 37.5955L26.2324 37.5899L26.1249 37.1015ZM26.0995 37.1071L25.955 36.6285L25.89 36.6481L26.0346 37.1268L26.1791 37.6054L26.244 37.5858L26.0995 37.1071ZM26.0346 37.1268L25.887 36.649L25.8571 36.6583L26.0046 37.136L26.1521 37.6137L26.1821 37.6045L26.0346 37.1268ZM26.0046 37.136L25.842 36.6632L25.7775 36.6854L25.9402 37.1582L26.1028 37.631L26.1673 37.6088L26.0046 37.136ZM25.9402 37.1582L25.7666 36.6892C25.5436 36.7718 25.3397 36.8839 25.1553 37.0217L25.4546 37.4222L25.754 37.8227C25.8625 37.7415 25.9819 37.6759 26.1137 37.6271L25.9402 37.1582ZM25.4546 37.4222L25.1662 37.0138L25.1223 37.0447L25.4108 37.4531L25.6993 37.8615L25.7431 37.8306L25.4546 37.4222ZM25.4108 37.4531L25.0862 37.0728L25.0526 37.1015L25.3771 37.4819L25.7017 37.8622L25.7353 37.8335L25.4108 37.4531ZM25.3771 37.4819L25.0537 37.1005L25.0156 37.1329L25.339 37.5142L25.6623 37.8956L25.7005 37.8632L25.3771 37.4819ZM25.339 37.5142L25.0144 37.1339L24.9807 37.1626L25.3053 37.543L25.6299 37.9233L25.6635 37.8946L25.339 37.5142ZM25.3053 37.543L24.9651 37.1765L24.9275 37.2114L25.2677 37.5779L25.6078 37.9443L25.6455 37.9094L25.3053 37.543ZM25.2677 37.5779L24.9322 37.2072L24.9011 37.2353L25.2366 37.606L25.5721 37.9768L25.6032 37.9486L25.2677 37.5779ZM25.2366 37.606L24.8714 37.2645L24.8369 37.3014L25.202 37.6429L25.5672 37.9845L25.6017 37.9476L25.2366 37.606ZM25.202 37.6429L24.8308 37.308L24.8008 37.3412L25.172 37.6762L25.5432 38.0112L25.5732 37.9779L25.202 37.6429ZM25.172 37.6762L24.7931 37.35L24.7592 37.3894L25.1381 37.7156L25.517 38.0419L25.551 38.0024L25.172 37.6762ZM25.1381 37.7156L24.7619 37.3862C24.607 37.5631 24.4823 37.7591 24.3841 37.9718L24.8381 38.1814L25.292 38.3909C25.3527 38.2596 25.4263 38.1454 25.5142 38.0451L25.1381 37.7156ZM24.8381 38.1814L24.3783 37.9849L24.3519 38.0467L24.8117 38.2431L25.2715 38.4396L25.2979 38.3778L24.8381 38.1814ZM24.8117 38.2431L24.3501 38.0511L24.3379 38.0804L24.7995 38.2724L25.2611 38.4645L25.2733 38.4352L24.8117 38.2431ZM24.7995 38.2724L24.3298 38.1009L24.3066 38.1646L24.7762 38.3362L25.2459 38.5078L25.2691 38.444L24.7995 38.2724ZM24.7762 38.3362L24.3052 38.1684L24.297 38.1915L24.768 38.3593L25.239 38.5271L25.2472 38.504L24.7762 38.3362ZM24.768 38.3593L24.2897 38.2135L24.2618 38.3049L24.7401 38.4507L25.2184 38.5965L25.2462 38.5051L24.768 38.3593ZM24.7401 38.4507L24.2585 38.3165L24.2331 38.4073L24.7148 38.5416L25.1964 38.6758L25.2217 38.585L24.7401 38.4507ZM24.7148 38.5416L24.2258 38.4373L24.2061 38.5295L24.6951 38.6339L25.1841 38.7382L25.2038 38.6459L24.7148 38.5416ZM24.6951 38.6339L24.2006 38.5598L24.1866 38.6535L24.6811 38.7275L25.1755 38.8016L25.1896 38.7079L24.6951 38.6339ZM24.6811 38.7275L24.1843 38.6708L24.1734 38.7664L24.6701 38.8232L25.1669 38.88L25.1778 38.7843L24.6811 38.7275ZM24.6701 38.8232L24.1709 38.796L24.1656 38.8931L24.6648 38.9203L25.1641 38.9476L25.1694 38.8504L24.6701 38.8232ZM24.6648 38.9203L24.1649 38.913L24.1635 39.0039L24.6635 39.0112L25.1634 39.0185L25.1648 38.9276L24.6648 38.9203ZM24.6635 39.0112L24.1636 39.0234L24.166 39.1189L24.6658 39.1066L25.1657 39.0944L25.1633 38.999L24.6635 39.0112ZM24.6658 39.1066L24.1675 39.1477L24.1755 39.2445L24.6738 39.2035L25.1721 39.1625L25.1641 39.0656L24.6658 39.1066ZM24.6738 39.2035L24.1782 39.27L24.1907 39.3632L24.6863 39.2967L25.1819 39.2302L25.1694 39.137L24.6738 39.2035ZM24.6863 39.2967L24.1952 39.3905L24.2128 39.4825L24.7039 39.3887L25.195 39.295L25.1774 39.2029L24.6863 39.2967ZM24.7039 39.3887L24.2155 39.4961L27.0151 52.2263L27.5035 52.1189L27.9918 52.0115L25.1922 39.2814L24.7039 39.3887ZM27.5035 52.1189L27.0151 52.2263C27.2019 53.0756 27.8249 53.7625 28.6512 54.0299L28.8051 53.5542L28.959 53.0785C28.4713 52.9207 28.1024 52.5146 27.9918 52.0115L27.5035 52.1189ZM28.8051 53.5542L28.6496 54.0294C29.475 54.2995 30.382 54.1139 31.0331 53.5383L30.7019 53.1637L30.3708 52.7891C29.9866 53.1287 29.4503 53.2392 28.9606 53.079L28.8051 53.5542ZM30.7019 53.1637L31.033 53.5384L41.0743 44.6679L40.7432 44.2932L40.4122 43.9185L30.3709 52.789L30.7019 53.1637ZM40.7432 44.2932L41.0752 44.6671C41.7404 44.0765 42.0373 43.172 41.846 42.3025L41.3577 42.4099L40.8694 42.5173C40.9823 43.0307 40.8073 43.5677 40.4113 43.9193L40.7432 44.2932ZM41.3577 42.4099L41.846 42.3025C41.6548 41.433 41.0059 40.7365 40.1543 40.4795L40.0098 40.9581L39.8653 41.4368C40.3724 41.5898 40.7565 42.0039 40.8694 42.5173L41.3577 42.4099ZM40.0098 40.9581L40.1531 40.4791L27.3167 36.6398L27.1734 37.1188L27.0301 37.5978L39.8665 41.4372L40.0098 40.9581ZM27.1734 37.1188L27.2958 36.634L27.2788 36.6297L27.1565 37.1145L27.0341 37.5993L27.051 37.6036L27.1734 37.1188ZM27.1565 37.1145L27.2846 36.6312L27.1912 36.6065L27.0631 37.0898L26.9349 37.5731L27.0283 37.5978L27.1565 37.1145ZM27.0631 37.0898L27.1674 36.6008L27.0751 36.5811L26.9708 37.0701L26.8665 37.5591L26.9588 37.5788L27.0631 37.0898ZM26.9708 37.0701L27.0449 36.5756L26.9512 36.5616L26.8771 37.056L26.803 37.5505L26.8967 37.5646L26.9708 37.0701ZM26.8771 37.056L26.9339 36.5593L26.8382 36.5483L26.7814 37.0451L26.7247 37.5419L26.8203 37.5528L26.8771 37.056ZM26.7814 37.0451L26.8087 36.5459L26.7116 36.5406L26.6843 37.0398L26.6571 37.5391L26.7542 37.5444L26.7814 37.0451ZM26.6843 37.0398L26.6916 36.5399L26.6007 36.5385L26.5934 37.0385L26.5861 37.5384L26.677 37.5398L26.6843 37.0398ZM26.5934 37.0385L26.5812 36.5386L26.4858 36.541L26.498 37.0408L26.5102 37.5407L26.6056 37.5383L26.5934 37.0385ZM26.498 37.0408L26.4588 36.5424L26.3645 36.5498L26.4037 37.0482L26.4429 37.5467L26.5372 37.5393L26.498 37.0408ZM26.4037 37.0482L26.3361 36.5528L26.2404 36.5659L26.308 37.0613L26.3756 37.5567L26.4713 37.5436L26.4037 37.0482ZM26.308 37.0613L26.2142 36.5702L26.1221 36.5877L26.2159 37.0789L26.3097 37.57L26.4018 37.5524L26.308 37.0613ZM24.6243 7.8983L24.4272 7.43879L4.50235 15.9849L4.69944 16.4444L4.89654 16.9039L24.8214 8.35781L24.6243 7.8983ZM4.69944 16.4444L4.50219 15.985C2.63696 16.7858 1.16446 18.2955 0.410135 20.1805L0.874345 20.3663L1.33855 20.552C1.99447 18.913 3.27499 17.6001 4.89669 16.9039L4.69944 16.4444ZM0.874345 20.3663L0.410135 20.1805C-0.344394 22.066 -0.316622 24.1754 0.484158 26.0407L0.943605 25.8434L1.40305 25.6462C0.706816 24.0244 0.682846 22.1906 1.33855 20.552L0.874345 20.3663ZM0.943605 25.8434L0.484079 26.0405C1.19787 27.7049 1.96685 29.4991 2.5574 30.8772C2.85266 31.5663 3.10332 32.1513 3.28016 32.5641C3.36858 32.7704 3.43854 32.9338 3.4864 33.0455C3.51033 33.1013 3.52874 33.1443 3.54116 33.1733C3.54737 33.1878 3.55208 33.1988 3.55525 33.2062C3.55683 33.2099 3.55802 33.2126 3.55882 33.2145C3.55922 33.2154 3.55952 33.2161 3.55972 33.2166C3.55982 33.2168 3.55989 33.217 3.55994 33.2171C3.55997 33.2172 3.55999 33.2172 3.56 33.2173C3.56001 33.2173 3.56002 33.2173 4.01962 33.0204C4.47923 32.8235 4.47922 32.8235 4.47921 32.8235C4.4792 32.8235 4.47918 32.8234 4.47915 32.8234C4.4791 32.8232 4.47903 32.8231 4.47893 32.8228C4.47873 32.8224 4.47843 32.8217 4.47803 32.8207C4.47723 32.8189 4.47604 32.8161 4.47446 32.8124C4.47129 32.805 4.46658 32.794 4.46037 32.7795C4.44794 32.7505 4.42954 32.7075 4.40561 32.6517C4.35774 32.54 4.28778 32.3766 4.19935 32.1702C4.02251 31.7575 3.77184 31.1724 3.47656 30.4833C2.886 29.1052 2.11697 27.3109 1.40313 25.6463L0.943605 25.8434ZM4.01962 33.0204L3.56023 33.2178C3.66991 33.4731 3.81832 33.701 3.99599 33.897L4.36645 33.5612L4.7369 33.2254C4.63244 33.1101 4.54453 32.9755 4.47901 32.823L4.01962 33.0204ZM4.36645 33.5612L3.88958 33.4109C3.76482 33.8067 3.73897 34.2396 3.83417 34.6725L4.3225 34.5651L4.81083 34.4577C4.75422 34.2003 4.7697 33.9451 4.84332 33.7115L4.36645 33.5612ZM4.3225 34.5651L3.83417 34.6725L9.42437 60.0922L9.9127 59.9848L10.401 59.8774L4.81083 34.4577L4.3225 34.5651ZM9.9127 59.9848L9.42437 60.0922C10.3328 64.2231 14.4169 66.8347 18.5478 65.9262L18.4404 65.4379L18.333 64.9496C14.7415 65.7394 11.1909 63.4689 10.401 59.8774L9.9127 59.9848ZM18.4404 65.4379L18.5478 65.9262L54.1354 58.0999L54.028 57.6116L53.9206 57.1233L18.333 64.9496L18.4404 65.4379ZM54.028 57.6116L54.1354 58.0999C58.2663 57.1915 60.8779 53.1075 59.9694 48.9765L59.4811 49.0839L58.9928 49.1913C59.7826 52.7828 57.5122 56.3334 53.9206 57.1233L54.028 57.6116ZM59.4811 49.0839L59.9694 48.9765L54.9383 26.0988L54.4499 26.2062L53.9616 26.3136L58.9928 49.1913L59.4811 49.0839ZM54.4499 26.2062L54.9383 26.0988C54.6504 24.79 53.8554 23.6487 52.7263 22.9267L52.4569 23.348L52.1876 23.7692C53.0928 24.348 53.7306 25.2634 53.9616 26.3136L54.4499 26.2062ZM52.4569 23.348L52.7263 22.9267C51.5943 22.2029 50.2247 21.9598 48.9158 22.2477L49.0232 22.736L49.1306 23.2243C50.1806 22.9934 51.2791 23.1883 52.1876 23.7692L52.4569 23.348ZM49.0232 22.736L48.9158 22.2477L15.9291 29.502L16.0365 29.9903L16.1439 30.4786L49.1306 23.2243L49.0232 22.736ZM16.0365 29.9903L16.2336 30.4498L25.0673 26.6607L24.8702 26.2012L24.6731 25.7417L15.8394 29.5308L16.0365 29.9903ZM24.8702 26.2012L25.0673 26.6607L25.0936 26.6494L24.8965 26.1899L24.6993 25.7304L24.6731 25.7417L24.8702 26.2012ZM24.8965 26.1899L25.0936 26.6494C34.692 22.5323 45.1628 18.0411 48.6404 16.5499L48.4433 16.0903L48.2462 15.6308C44.7686 17.122 34.2977 21.6133 24.6994 25.7304L24.8965 26.1899ZM48.4433 16.0903L48.64 16.55C49.5567 16.1577 50.2764 15.4179 50.647 14.4918L50.1828 14.306L49.7186 14.1203C49.446 14.8014 48.9179 15.3433 48.2466 15.6307L48.4433 16.0903ZM50.1828 14.306L50.6472 14.4915C51.0158 13.5683 51.0041 12.5344 50.6092 11.6205L50.1502 11.8189L49.6912 12.0172C49.9799 12.6852 49.9891 13.4428 49.7185 14.1206L50.1828 14.306ZM50.1502 11.8189L50.6097 11.6219L47.0203 3.24929L46.5607 3.4463L46.1012 3.64332L49.6906 12.0159L50.1502 11.8189ZM46.5607 3.4463L47.0203 3.24929C46.4919 2.01674 45.4944 1.04445 44.2494 0.546494L44.0638 1.01073L43.8781 1.47498C44.8772 1.8746 45.6775 2.65486 46.1012 3.64331L46.5607 3.4463ZM44.0638 1.01073L44.2486 0.546163C43.0048 0.0512242 41.6154 0.0667413 40.3827 0.595183L40.5797 1.05474L40.7767 1.51429C41.7651 1.0906 42.8798 1.07775 43.8789 1.47531L44.0638 1.01073ZM40.5797 1.05474L40.3826 0.59522L36.3314 2.33288L36.5285 2.79239L36.7256 3.25191L40.7768 1.51425L40.5797 1.05474ZM36.4912 2.80839L36.2941 2.34887L24.5311 7.39425L24.7282 7.85376L24.9252 8.31328L36.6883 3.2679L36.4912 2.80839ZM38.1889 16.2395L38.386 16.699L46.5031 13.2171L46.306 12.7576L46.1088 12.298L37.9918 15.78L38.1889 16.2395ZM46.306 12.7576L46.7655 12.5605L43.4331 4.78702L42.9735 4.98403L42.514 5.18104L45.8464 12.9546L46.306 12.7576ZM42.9735 4.98403L43.4313 4.78295C43.3101 4.50706 43.0841 4.28427 42.7981 4.17145L42.6146 4.63657L42.4311 5.1017C42.4661 5.11549 42.4981 5.14508 42.5157 5.18511L42.9735 4.98403ZM42.6146 4.63657L42.802 4.17303C42.5187 4.05848 42.2008 4.0642 41.9232 4.18125L42.1175 4.64197L42.3117 5.10269C42.3512 5.08606 42.3946 5.08693 42.4272 5.10011L42.6146 4.63657ZM42.1175 4.64197L41.9204 4.18246L38.9215 5.46873L39.1186 5.92824L39.3157 6.38776L42.3146 5.10149L42.1175 4.64197ZM39.1186 5.92824L38.6206 5.88334L37.6909 16.1946L38.1889 16.2395L38.6869 16.2844L39.6166 5.97314L39.1186 5.92824ZM26.3526 21.3169L26.5497 21.7764L34.3059 18.4492L34.1088 17.9897L33.9117 17.5302L26.1555 20.8574L26.3526 21.3169ZM34.1088 17.9897L34.6068 18.0347L35.5383 7.72247L35.0403 7.67749L34.5423 7.6325L33.6108 17.9447L34.1088 17.9897ZM35.0403 7.67749L34.8432 7.21797L27.0871 10.5447L27.2841 11.0042L27.4812 11.4638L35.2374 8.137L35.0403 7.67749ZM27.2841 11.0042L26.7862 10.9593L25.8546 21.2719L26.3526 21.3169L26.8505 21.3619L27.7821 11.0492L27.2841 11.0042ZM22.2751 23.066L22.078 22.6065L14.3129 25.9374L14.51 26.3969L14.7071 26.8564L22.4722 23.5255L22.2751 23.066ZM14.51 26.3969L15.008 26.4418L15.9378 16.1294L15.4398 16.0845L14.9418 16.0396L14.012 26.352L14.51 26.3969ZM15.4398 16.0845L15.6369 16.544L23.402 13.2134L23.2049 12.7539L23.0078 12.2944L15.2427 15.625L15.4398 16.0845ZM23.2049 12.7539L22.7069 12.709L21.7771 23.0211L22.2751 23.066L22.7731 23.1109L23.7029 12.7988L23.2049 12.7539ZM6.83899 29.6875L7.0361 30.147L10.6295 28.6056L10.4324 28.1461L10.2352 27.6866L6.64187 29.228L6.83899 29.6875ZM10.4324 28.1461L10.9303 28.191L11.8607 17.8781L11.3628 17.8332L10.8648 17.7883L9.93438 28.1012L10.4324 28.1461ZM11.3628 17.8332L11.1657 17.3737L6.04008 19.5722L6.23717 20.0317L6.43427 20.4912L11.5599 18.2927L11.3628 17.8332ZM6.23717 20.0317L6.04017 19.5721C5.12678 19.9637 4.40383 20.7038 4.03552 21.6308L4.50018 21.8154L4.96484 22C5.23468 21.3209 5.7646 20.7783 6.43417 20.4912L6.23717 20.0317ZM4.50018 21.8154L4.03583 21.63C3.66712 22.5534 3.6792 23.5866 4.07117 24.5024L4.53084 24.3057L4.99051 24.1089C4.7028 23.4367 4.69397 22.6784 4.96453 22.0008L4.50018 21.8154ZM4.53084 24.3057L4.07132 24.5028L6.37947 29.8846L6.83899 29.6875L7.29851 29.4904L4.99036 24.1086L4.53084 24.3057ZM55.6682 49.9224L56.1565 49.815L51.1253 26.9373L50.637 27.0447L50.1486 27.1521L55.1798 50.0298L55.6682 49.9224ZM50.637 27.0447L51.1253 26.9373C51.0604 26.6421 50.8811 26.3801 50.6218 26.2143L50.3525 26.6356L50.0831 27.0568C50.1154 27.0774 50.1398 27.1118 50.1486 27.1521L50.637 27.0447ZM50.3525 26.6356L50.6218 26.2143C50.3626 26.0486 50.0495 25.9957 49.7543 26.0606L49.8617 26.549L49.9691 27.0373C50.0094 27.0284 50.0508 27.0362 50.0831 27.0568L50.3525 26.6356ZM49.8617 26.549L49.7543 26.0606L8.44733 35.1447L8.55472 35.633L8.66211 36.1214L49.9691 27.0373L49.8617 26.549ZM8.55472 35.633L8.06639 35.7404L13.2373 59.2536L13.7257 59.1463L14.214 59.0389L9.04305 35.5256L8.55472 35.633ZM13.7257 59.1463L13.2373 59.2536C13.6824 61.2773 15.6856 62.5583 17.7093 62.1133L17.6019 61.6249L17.4945 61.1366C16.0102 61.463 14.5404 60.5231 14.214 59.0389L13.7257 59.1463ZM17.6019 61.6249L17.7093 62.1133L53.2969 54.287L53.1895 53.7987L53.0821 53.3103L17.4945 61.1366L17.6019 61.6249ZM53.1895 53.7987L53.2969 54.287C55.3205 53.842 56.6015 51.8387 56.1565 49.815L55.6682 49.9224L55.1798 50.0298C55.5062 51.5141 54.5663 52.9839 53.0821 53.3103L53.1895 53.7987Z" fill="#252520" mask="url(#path-1-inside-1_862_4624)"/>
</svg>
