<svg width="69" height="50" viewBox="0 0 69 50" fill="none" xmlns="http://www.w3.org/2000/svg">
<path d="M7.77825 0H61.2217C63.3644 0 65.3089 0.929669 66.7171 2.42648C68.1254 3.92329 69 5.99307 69 8.26755V41.7325C69 44.0069 68.1254 46.0738 66.7171 47.5735C65.3089 49.0703 63.3616 50 61.2217 50H7.77825C5.63564 50 3.69109 49.0703 2.28287 47.5735C0.874648 46.0767 0 44.0069 0 41.7325V8.26755C0 5.99307 0.874648 3.9262 2.28287 2.42648C3.69109 0.929669 5.63839 0 7.77825 0ZM11.076 15.0646C10.3692 14.4887 10.2344 13.4158 10.7735 12.6616C11.3153 11.9103 12.3247 11.7641 13.0343 12.3371L28.1755 24.6072C30.0706 26.142 32.2874 26.9108 34.4988 26.9108C36.7129 26.9108 38.9298 26.142 40.8221 24.6072L64.7429 5.22499C64.6439 5.09636 64.5393 4.97357 64.4293 4.85664C63.6042 3.97958 62.4682 3.43586 61.2196 3.43586H7.77607C6.5274 3.43586 5.39145 3.98255 4.56631 4.85664C3.74116 5.73369 3.22962 6.94109 3.22962 8.26831V41.7332C3.22962 43.0604 3.74395 44.2678 4.56631 45.1449C5.39145 46.0219 6.5274 46.5657 7.77607 46.5657H61.2196C62.4682 46.5657 63.6042 46.019 64.4293 45.1449C65.2545 44.2678 65.766 43.0604 65.766 41.7332V8.71286L42.7803 27.3384C40.2994 29.3468 37.3977 30.3525 34.4957 30.3525C31.594 30.3525 28.6923 29.3468 26.2111 27.3384L11.0699 15.0683L11.076 15.0646Z" fill="white"/>
</svg>
