<svg width="17" height="17" viewBox="0 0 17 17" fill="none" xmlns="http://www.w3.org/2000/svg">
<path d="M10.8742 10.1465C9.97734 10.1465 9.54609 10.6465 8.07422 10.6465C6.60234 10.6465 6.17422 10.1465 5.27422 10.1465C2.95547 10.1465 1.07422 12.0277 1.07422 14.3465V15.1465C1.07422 15.9746 1.74609 16.6465 2.57422 16.6465H13.5742C14.4023 16.6465 15.0742 15.9746 15.0742 15.1465V14.3465C15.0742 12.0277 13.193 10.1465 10.8742 10.1465ZM13.5742 15.1465H2.57422V14.3465C2.57422 12.859 3.78672 11.6465 5.27422 11.6465C5.73047 11.6465 6.47109 12.1465 8.07422 12.1465C9.68985 12.1465 10.4148 11.6465 10.8742 11.6465C12.3617 11.6465 13.5742 12.859 13.5742 14.3465V15.1465ZM8.07422 9.64648C10.5586 9.64648 12.5742 7.63086 12.5742 5.14648C12.5742 2.66211 10.5586 0.646484 8.07422 0.646484C5.58984 0.646484 3.57422 2.66211 3.57422 5.14648C3.57422 7.63086 5.58984 9.64648 8.07422 9.64648ZM8.07422 2.14648C9.72734 2.14648 11.0742 3.49336 11.0742 5.14648C11.0742 6.79961 9.72734 8.14648 8.07422 8.14648C6.42109 8.14648 5.07422 6.79961 5.07422 5.14648C5.07422 3.49336 6.42109 2.14648 8.07422 2.14648Z" fill="white" stroke="white" stroke-width="0.0113658"/>
</svg>
