<svg width="66" height="59" viewBox="0 0 66 59" fill="none" xmlns="http://www.w3.org/2000/svg">
<path d="M57.2744 24.3458H53.8994C52.9291 17.3164 46.8964 11.8776 39.6051 11.8776C32.3138 11.8776 26.2811 17.3141 25.3108 24.3458H8.73498C4.04209 24.3458 0.222656 28.1652 0.222656 32.8581V43.4474C0.222656 48.1403 4.03989 51.9597 8.73498 51.9597H9.98466L8.72398 55.5019C8.35656 56.5338 8.89559 57.6647 9.92746 58.0299C10.1475 58.1091 10.3697 58.1465 10.5897 58.1465C11.4037 58.1465 12.1672 57.6405 12.4554 56.8286L14.1869 51.9575H51.8181L53.5496 56.8286C53.8378 57.6383 54.6012 58.1465 55.4153 58.1465C55.6353 58.1465 55.8597 58.1091 56.0775 58.0299C57.1094 57.6647 57.6462 56.5316 57.281 55.5019L56.0203 51.9597H57.27C61.9629 51.9597 65.7823 48.1403 65.7823 43.4474V32.8581C65.7867 28.1674 61.9695 24.3458 57.2744 24.3458ZM39.6051 15.8401C45.3871 15.8401 50.0931 20.544 50.0931 26.3281C50.0931 32.1123 45.3871 36.814 39.6051 36.814C33.8231 36.814 29.117 32.1101 29.117 26.3259C29.117 20.5418 33.8231 15.8401 39.6051 15.8401ZM61.8265 43.4474C61.8265 45.9577 59.7847 47.9973 57.2744 47.9973H8.73498C6.22463 47.9973 4.1829 45.9555 4.1829 43.4474V32.8581C4.1829 30.3478 6.22463 28.3082 8.73498 28.3082H25.3108C26.2811 35.3399 32.3138 40.7764 39.6051 40.7764C46.8964 40.7764 52.9291 35.3399 53.8994 28.3082H57.2744C59.7847 28.3082 61.8265 30.35 61.8265 32.8581V43.4474Z" fill="white"/>
<path d="M39.6051 33.0759C43.3255 33.0759 46.3507 30.0485 46.3507 26.3281C46.3507 25.2346 45.4641 24.348 44.3706 24.348C43.2771 24.348 42.3905 25.2346 42.3905 26.3281C42.3905 27.8638 41.1408 29.1157 39.6029 29.1157C38.5094 29.1157 37.6228 30.0023 37.6228 31.0958C37.6228 32.1893 38.5116 33.0759 39.6051 33.0759Z" fill="white"/>
<path d="M39.6051 7.03951C40.6986 7.03951 41.5852 6.15286 41.5852 5.05939V2.12661C41.5852 1.03314 40.6986 0.146484 39.6051 0.146484C38.5116 0.146484 37.625 1.03314 37.625 2.12661V5.05939C37.625 6.15286 38.5116 7.03951 39.6051 7.03951Z" fill="white"/>
<path d="M23.1657 12.6895C23.5529 13.0789 24.0589 13.2725 24.5672 13.2725C25.0754 13.2725 25.5792 13.0789 25.9665 12.6917C26.7409 11.9172 26.7409 10.6631 25.9665 9.89309L23.8917 7.81836C23.1173 7.03951 21.8654 7.04171 21.091 7.81616C20.3165 8.59061 20.3165 9.84469 21.091 10.6147L23.1657 12.6895Z" fill="white"/>
<path d="M54.643 13.2703C55.1491 13.2703 55.6573 13.0767 56.0445 12.6873L58.1192 10.6125C58.8915 9.84029 58.8915 8.58621 58.1192 7.81396C57.347 7.04171 56.0929 7.03731 55.3185 7.81616L53.2437 9.89089C52.4715 10.6631 52.4715 11.9172 53.2437 12.6895C53.631 13.0767 54.137 13.2703 54.643 13.2703Z" fill="white"/>
<path d="M11.5754 34.8162C10.4819 34.8162 9.59524 35.7029 9.59524 36.7964V39.5069C9.59524 40.6004 10.4819 41.487 11.5754 41.487C12.6688 41.487 13.5555 40.6004 13.5555 39.5069V36.7964C13.5555 35.7029 12.6688 34.8162 11.5754 34.8162Z" fill="white"/>
<path d="M18.4068 34.8162C17.3133 34.8162 16.4267 35.7029 16.4267 36.7964V39.5069C16.4267 40.6004 17.3133 41.487 18.4068 41.487C19.5002 41.487 20.3869 40.6004 20.3869 39.5069V36.7964C20.3869 35.7029 19.5002 34.8162 18.4068 34.8162Z" fill="white"/>
</svg>
