<svg width="17" height="17" viewBox="0 0 17 17" fill="none" xmlns="http://www.w3.org/2000/svg">
<path d="M12.0156 4.62891C12.0156 2.42328 10.2212 0.628906 8.01563 0.628906C5.81 0.628906 4.01563 2.42328 4.01563 4.62891H1.01562V14.1289C1.01562 15.5096 2.13491 16.6289 3.51563 16.6289H12.5156C13.8963 16.6289 15.0156 15.5096 15.0156 14.1289V4.62891H12.0156ZM8.01563 2.12891C9.39413 2.12891 10.5156 3.25041 10.5156 4.62891H5.51563C5.51563 3.25041 6.63713 2.12891 8.01563 2.12891ZM13.5156 14.1289C13.5156 14.6803 13.067 15.1289 12.5156 15.1289H3.51563C2.96422 15.1289 2.51563 14.6803 2.51563 14.1289V6.12891H4.01563V7.37891C4.01563 7.79313 4.35141 8.12891 4.76563 8.12891C5.17984 8.12891 5.51563 7.79313 5.51563 7.37891V6.12891H10.5156V7.37891C10.5156 7.79313 10.8514 8.12891 11.2656 8.12891C11.6798 8.12891 12.0156 7.79313 12.0156 7.37891V6.12891H13.5156V14.1289Z" fill="white" stroke="white" stroke-width="0.0113658"/>
</svg>
