<svg width="68" height="64" viewBox="0 0 68 64" fill="none" xmlns="http://www.w3.org/2000/svg">
<path d="M29.3035 58.6025C36.2444 58.6061 42.9539 56.1064 48.2006 51.5623C48.7706 54.9382 50.5179 58.0031 53.1326 60.2133C55.7472 62.4235 59.0602 63.6363 62.4838 63.6364H65.8519C66.3321 63.6364 66.7927 63.4457 67.1323 63.1061C67.4718 62.7665 67.6626 62.3059 67.6626 61.8257C67.6626 61.3454 67.4718 60.8849 67.1323 60.5453C66.7927 60.2057 66.3321 60.0149 65.8519 60.0149H62.5201C59.6386 60.0149 56.8751 58.8703 54.8377 56.8328C52.8002 54.7953 51.6555 52.0318 51.6555 49.1504V48.0784C55.8479 43.0016 58.1861 36.6482 58.2848 30.0648C58.3836 23.4815 56.237 17.0608 52.1987 11.8606C48.1604 6.66034 42.4713 2.99069 36.0685 1.45613C29.6657 -0.0784333 22.9312 0.61364 16.9744 3.41834C11.0175 6.22304 6.19364 10.9731 3.29738 16.8859C0.401132 22.7988 -0.394741 29.5218 1.04087 35.9475C2.47648 42.3732 6.05795 48.1183 11.1953 52.2363C16.3326 56.3543 22.7194 58.5997 29.3035 58.6025ZM29.3035 4.27974C34.3174 4.27974 39.2187 5.76653 43.3875 8.5521C47.5564 11.3377 50.8057 15.2969 52.7244 19.9291C54.6431 24.5613 55.1452 29.6585 54.167 34.576C53.1889 39.4936 50.7744 44.0106 47.2291 47.556C43.6837 51.1013 39.1667 53.5157 34.2491 54.4939C29.3316 55.4721 24.2344 54.97 19.6022 53.0513C14.97 51.1326 11.0108 47.8833 8.22521 43.7144C5.43964 39.5455 3.95285 34.6443 3.95285 29.6304C3.9519 26.3007 4.60691 23.0034 5.88048 19.9269C7.15404 16.8504 9.0212 14.0549 11.3753 11.7001C13.7294 9.3453 16.5244 7.47734 19.6005 6.2029C22.6767 4.92846 25.9738 4.2725 29.3035 4.2725V4.27974Z" fill="white"/>
<path d="M29.49 26.6849C30.8765 26.6849 32.2319 26.2739 33.3849 25.5038C34.5379 24.7338 35.4368 23.6392 35.9679 22.3585C36.4991 21.0778 36.6386 19.6683 36.369 18.3083C36.0994 16.9483 35.4327 15.6987 34.4531 14.7174C33.4735 13.7362 32.2251 13.0673 30.8655 12.7954C29.5059 12.5235 28.0962 12.6606 26.8146 13.1896C25.533 13.7185 24.4369 14.6155 23.6649 15.7672C22.8928 16.9189 22.4795 18.2736 22.4772 19.6601C22.4772 21.5211 23.2156 23.3061 24.5305 24.6232C25.8453 25.9402 27.629 26.6817 29.49 26.6849Z" fill="white"/>
<path d="M29.49 34.7482C28.1025 34.7494 26.7465 35.1621 25.5937 35.9342C24.4408 36.7063 23.5429 37.8031 23.0136 39.0856C22.4842 40.3682 22.3472 41.779 22.62 43.1395C22.8927 44.4999 23.5628 45.7489 24.5456 46.7283C25.5284 47.7078 26.7797 48.3737 28.1411 48.6418C29.5024 48.9099 30.9127 48.7681 32.1935 48.2344C33.4743 47.7007 34.568 46.799 35.3361 45.6435C36.1043 44.4881 36.5124 43.1307 36.5089 41.7432C36.501 39.8863 35.7582 38.108 34.4429 36.7973C33.1277 35.4865 31.3469 34.7498 29.49 34.7482Z" fill="white"/>
<path d="M33.5247 30.7195C33.5259 32.1063 33.9382 33.4616 34.7094 34.614C35.4807 35.7665 36.5764 36.6644 37.858 37.1943C39.1395 37.7242 40.5494 37.8622 41.9093 37.5909C43.2693 37.3197 44.5183 36.6513 45.4985 35.6703C46.4786 34.6893 47.146 33.4397 47.4161 32.0795C47.6862 30.7193 47.547 29.3096 47.016 28.0285C46.485 26.7474 45.5862 25.6525 44.433 24.8822C43.2799 24.1119 41.9243 23.7007 40.5375 23.7007C38.6775 23.7039 36.8947 24.4446 35.5801 25.7603C34.2654 27.0761 33.5262 28.8595 33.5247 30.7195Z" fill="white"/>
<path d="M18.4246 37.7324C19.8124 37.7359 21.17 37.3277 22.3256 36.5592C23.4813 35.7908 24.3829 34.6968 24.9164 33.4157C25.45 32.1346 25.5914 30.7239 25.3228 29.3624C25.0543 28.0009 24.3878 26.7496 23.4077 25.7671C22.4277 24.7845 21.1781 24.1148 19.8173 23.8428C18.4564 23.5707 17.0455 23.7085 15.763 24.2388C14.4805 24.7691 13.3842 25.6679 12.6128 26.8215C11.8414 27.9752 11.4297 29.3318 11.4297 30.7195C11.4328 32.5754 12.1702 34.3546 13.4808 35.6686C14.7915 36.9826 16.5688 37.7245 18.4246 37.7324Z" fill="white"/>
</svg>
