<svg width="58" height="70" viewBox="0 0 58 70" fill="none" xmlns="http://www.w3.org/2000/svg">
<path fill-rule="evenodd" clip-rule="evenodd" d="M28.7774 0.0144115C28.6355 0.0286696 28.4983 0.0666905 28.3612 0.118968L1.13977 10.5224C0.454012 10.7886 0 11.4492 0 12.1859V40.6924C0 49.3849 7.36348 56.5091 14.3395 61.6081C21.32 66.7077 28.2723 69.8396 28.2723 69.8396C28.7358 70.0535 29.2655 70.0535 29.7289 69.8396C29.7289 69.8396 36.6668 66.7077 43.6471 61.6081C50.6274 56.5086 58 49.3794 58 40.6924V12.1859C57.9953 11.4445 57.5365 10.7839 56.846 10.5224L29.6246 0.118968C29.3551 0.0144115 29.0658 -0.023613 28.7774 0.0144115ZM28.9949 3.69763L54.439 13.4357V40.6964C54.439 47.2454 48.1868 53.8802 41.5559 58.7225C35.2896 63.304 29.6618 65.8372 28.9901 66.1461C28.3138 65.8372 22.6859 63.2994 16.4242 58.7225C9.79367 53.8796 3.55565 47.245 3.55565 40.6964V13.4357L28.9949 3.69763ZM39.5744 24.8701C39.1015 24.8748 38.6522 25.0697 38.3259 25.4119L26.1947 37.8924L19.6635 31.1723C18.9731 30.4689 17.8522 30.4547 17.1523 31.1438C16.8118 31.4717 16.6132 31.928 16.6037 32.4033C16.599 32.8785 16.7787 33.3395 17.1097 33.6818L24.9178 41.6993C25.2536 42.0415 25.7123 42.2364 26.1947 42.2364C26.6724 42.2364 27.1359 42.0415 27.4669 41.6993L40.8742 27.9121V27.9073C41.5553 27.2039 41.5458 26.0728 40.8459 25.3837C40.5101 25.051 40.0521 24.8653 39.5744 24.8701Z" fill="white"/>
</svg>
