<svg width="60" height="60" viewBox="0 0 60 60" fill="none" xmlns="http://www.w3.org/2000/svg">
<path d="M26.46 0.25H33.5703C38.9882 0.250161 43.4513 4.47195 43.7148 9.85547L43.7158 9.87012L43.7188 9.88477C43.7181 9.88111 43.7193 9.88793 43.7207 9.91309C43.7219 9.93501 43.7226 9.96437 43.7236 10.001C43.7257 10.0744 43.7276 10.1722 43.7285 10.2891C43.7304 10.5227 43.7305 10.8278 43.7305 11.1562V11.4062H46.8896C53.9976 11.4062 59.75 17.1415 59.75 24.2061V46.9502C59.7349 54.0149 53.9826 59.75 46.875 59.75H13.126C6.12825 59.7356 0.44461 54.1913 0.254883 47.2793L0.25 46.9492V24.2061L0.254883 23.876C0.441893 17.0741 5.94877 11.5972 12.793 11.4111L13.126 11.4062H16.2998V11.1562C16.2998 10.8054 16.2999 10.4739 16.3018 10.2178C16.3027 10.0897 16.3046 9.98149 16.3066 9.89941C16.3077 9.85855 16.3083 9.82526 16.3096 9.7998C16.3102 9.78722 16.3109 9.77696 16.3115 9.76953L16.3145 9.74023C16.6511 4.41391 21.0863 0.250021 26.46 0.25ZM55.1436 35.3604L33.4385 41.8184L33.4375 41.8193C32.3371 42.1549 31.2064 42.3154 30.0752 42.3154C28.9438 42.3154 27.8122 42.1542 26.7256 41.833L4.88574 35.3604L4.56543 35.2656V46.9512C4.58105 51.6679 8.41274 55.4774 13.1396 55.4775H46.8896C51.616 55.4775 55.4648 51.6685 55.4648 46.9502V35.2646L55.1436 35.3604ZM25.3496 27.5879H34.6797C35.8628 27.5879 36.8298 28.5508 36.8301 29.7236C36.8301 30.8967 35.863 31.8604 34.6797 31.8604H25.3496C24.1665 31.8601 23.2002 30.8965 23.2002 29.7236C23.2004 28.5509 24.1667 27.5881 25.3496 27.5879ZM55.4648 24.2051C55.4494 19.4881 51.6168 15.6787 46.8896 15.6787H13.1396C8.41309 15.6789 4.56543 19.503 4.56543 24.2061V30.8057L4.74414 30.8584L27.9492 37.7344V37.7334C29.3305 38.1498 30.8043 38.1497 32.1855 37.7334L32.1865 37.7344L55.2861 30.8584L55.4648 30.8057V24.2051ZM39.4297 10.0234C39.2572 6.93642 36.6862 4.52262 33.5703 4.52246H26.46C23.3744 4.52248 20.8191 6.90541 20.6152 9.96094V11.4062H39.4297V10.0371H39.4307L39.4297 10.0234Z" fill="white" stroke="#222222" stroke-width="0.5"/>
</svg>
