<svg width="65" height="61" viewBox="0 0 65 61" fill="none" xmlns="http://www.w3.org/2000/svg">
<path d="M15.1025 1.75195C26.3078 -2.20567 38.6369 3.53128 42.8604 14.5723L43.0547 15.1016C43.421 16.1395 42.88 17.2736 41.8438 17.6396H41.8428L25.4141 23.4482L24.9424 23.6152L25.1094 24.0859L30.3564 38.9258L30.4775 39.2686L30.8408 39.2588C31.1095 39.2519 31.3741 39.2342 31.623 39.2188C31.8761 39.203 32.1175 39.1895 32.3613 39.1895H32.4795L32.4824 39.1875C39.3691 39.2015 45.834 40.4807 51.1094 42.6943C56.421 44.9232 60.4845 48.0792 62.5938 51.7969C63.5415 53.4707 63.5301 55.4583 62.5645 57.1201C61.5987 58.7753 59.8842 59.7597 57.9678 59.7598H6.76465C4.8483 59.7597 3.13474 58.7752 2.16895 57.1201C1.20018 55.4589 1.19043 53.4715 2.13867 51.7969C5.67096 45.5651 14.715 40.9836 25.7441 39.6338L26.3623 39.5576L26.1543 38.9707L21.3584 25.4121L21.1924 24.9414L20.7207 25.1074L4.29492 30.915C4.07552 30.9909 3.84862 31.0302 3.62891 31.0303C3.33301 31.0303 3.04127 30.9661 2.77246 30.8369H2.77148C2.29327 30.6083 1.92854 30.2025 1.75391 29.7051L1.75293 29.7041C-2.2706 18.3146 3.71691 5.77559 15.1025 1.75195ZM32.3643 43.168C26.2851 43.168 20.5039 44.2404 15.7949 46.0898C11.0987 47.9344 7.40718 50.5774 5.59961 53.7637C5.26666 54.3516 5.46419 54.8719 5.60449 55.1143V55.1152C5.74066 55.3523 6.09284 55.7842 6.76172 55.7842H57.9609C58.4266 55.7842 58.7371 55.5735 58.9297 55.3662H58.9785L59.123 55.1182C59.2635 54.8774 59.4644 54.3546 59.1299 53.7637C57.3239 50.5772 53.6321 47.9343 48.9355 46.0898C44.2261 44.2403 38.4436 43.168 32.3643 43.168ZM53.9316 15.9561C59.6032 15.9561 64.2188 20.5716 64.2188 26.2432C64.2187 31.9146 59.6031 36.5303 53.9316 36.5303C48.2601 36.5303 43.6446 31.9146 43.6445 26.2432C43.6445 20.5716 48.2601 15.9561 53.9316 15.9561ZM53.9316 19.9346C50.4526 19.9346 47.623 22.7642 47.623 26.2432C47.6231 29.7221 50.4527 32.5518 53.9316 32.5518C57.4106 32.5518 60.2401 29.7221 60.2402 26.2432C60.2402 22.7642 57.4106 19.9346 53.9316 19.9346ZM10.502 9.00195C8.84755 10.474 7.46201 12.2466 6.43164 14.2715L6.23047 14.6797C4.53771 18.219 4.05966 22.1298 4.82129 25.9072L4.93457 26.4717L5.47754 26.2793L13.2109 23.5449L13.6641 23.3848L13.5225 22.9258C12.1605 18.5168 11.3559 14.2505 11.2939 10.7275C11.2877 10.2509 11.3167 9.8578 11.334 9.39453L11.377 8.22266L10.502 9.00195ZM16.5791 5.49707L16.4053 5.49805L16.2695 5.60645C16.0629 5.77206 15.918 6.03045 15.8105 6.29297C15.6972 6.57006 15.6007 6.91683 15.5225 7.32129C15.3658 8.13145 15.2749 9.22101 15.2998 10.5615C15.3497 13.246 15.862 16.9758 17.2627 21.5596L17.415 22.0596L17.9072 21.8848L25.5713 19.1768L26.0635 19.0029L25.8682 18.5186C24.0754 14.081 22.1127 10.8604 20.4521 8.74121C19.6227 7.68273 18.8636 6.89086 18.2314 6.35938C17.916 6.09418 17.6237 5.88621 17.3633 5.74219C17.1179 5.60648 16.8427 5.49542 16.5791 5.49707ZM22.8506 5.34375C25.4355 8.29976 27.8264 12.6213 29.6631 17.2178L29.8418 17.6641L30.2939 17.5039L38.0039 14.7793L38.5479 14.5869L38.2812 14.0762C36.4952 10.6577 33.6663 7.91896 30.127 6.22949H30.1279C27.9337 5.18025 25.6039 4.62718 23.251 4.51465L22.0771 4.45898L22.8506 5.34375Z" fill="white" stroke="#222222"/>
</svg>
