<svg width="29" height="50" viewBox="0 0 29 50" fill="none" xmlns="http://www.w3.org/2000/svg">
<path d="M21.8691 0H7.13089C5.24008 0.00139405 3.42711 0.765402 2.0901 2.12424C0.7531 3.48309 0.00137164 5.32568 0 7.24737V42.7526C0.00137164 44.6743 0.7531 46.5169 2.0901 47.8758C3.42711 49.2346 5.24008 49.9986 7.13089 50H21.8691C23.7599 49.9986 25.5729 49.2346 26.9099 47.8758C28.2469 46.5169 28.9986 44.6743 29 42.7526V7.24737C28.9986 5.32568 28.2469 3.48309 26.9099 2.12424C25.5729 0.765402 23.7599 0.00139405 21.8691 0ZM26.4107 42.7526C26.408 43.976 25.9286 45.1484 25.0775 46.0134C24.2264 46.8784 23.0728 47.3656 21.8691 47.3684H7.13089C5.92722 47.3656 4.77364 46.8784 3.92251 46.0134C3.07139 45.1484 2.59202 43.976 2.58929 42.7526V7.24737C2.59202 6.02404 3.07139 4.85161 3.92251 3.98658C4.77364 3.12156 5.92722 2.63436 7.13089 2.63158H7.50375C7.32351 2.99094 7.23721 3.39135 7.25313 3.79438C7.26905 4.19741 7.38665 4.58951 7.59465 4.93303C7.80265 5.27654 8.09405 5.55994 8.44088 5.75601C8.78771 5.95207 9.17831 6.05422 9.57518 6.05263H19.4145C19.8113 6.05422 20.2019 5.95207 20.5488 5.75601C20.8956 5.55994 21.187 5.27654 21.395 4.93303C21.603 4.58951 21.7206 4.19741 21.7365 3.79438C21.7524 3.39135 21.6661 2.99094 21.4859 2.63158H21.8587C23.0642 2.63158 24.2205 3.11754 25.0738 3.98287C25.9272 4.8482 26.408 6.02222 26.4107 7.24737V42.7526Z" fill="white"/>
</svg>
