<svg width="78" height="58" viewBox="0 0 78 58" fill="none" xmlns="http://www.w3.org/2000/svg">
<path d="M31 20.1111C31 19.4974 31.484 19 32.0811 19H45.9189C46.516 19 47 19.4974 47 20.1111C47 20.7248 46.516 21.2222 45.9189 21.2222H41.7018C42.3218 22.0382 42.7339 23.0287 42.8547 24.1111H45.9189C46.516 24.1111 47 24.6085 47 25.2222C47 25.8359 46.516 26.3333 45.9189 26.3333H42.8547C42.5329 29.21 40.1555 31.4445 37.2703 31.4445H34.3734L40.7814 37.0425C41.2366 37.4401 41.2915 38.1406 40.9047 38.6085C40.5179 39.0763 39.8363 39.1328 39.3811 38.7352L31.6286 31.9625C30.556 31.0259 31.2013 29.2221 32.6092 29.2221H37.2706C38.9598 29.2221 40.366 27.9781 40.6693 26.3332H32.0814C31.4843 26.3332 31.0003 25.8358 31.0003 25.2221C31.0003 24.6083 31.4843 24.1109 32.0814 24.1109H40.6693C40.3661 22.466 38.9599 21.2221 37.2706 21.2221H32.0814C31.4843 21.2221 31.0003 20.7246 31.0003 20.1109L31 20.1111Z" fill="white"/>
<path d="M45.1567 5.4879C21.8731 17.6123 6.35075 12.4108 1.5 8.29448V52.0775C9.33582 57.1294 26.1269 59.3746 41.7985 50.3936C54.3358 43.2088 70.1567 47.3999 76.5 50.3936V8.29448C65.7537 -2.48277 51.1269 1.93291 45.1567 5.4879Z" stroke="white" stroke-width="3"/>
</svg>
