<svg width="17" height="17" viewBox="0 0 17 17" fill="none" xmlns="http://www.w3.org/2000/svg">
<path d="M16.043 15.3816L12.2492 11.5879C12.1773 11.516 12.0836 11.4785 11.9836 11.4785H11.5711C12.5555 10.3379 13.1523 8.85352 13.1523 7.22852C13.1523 3.63789 10.243 0.728516 6.65234 0.728516C3.06172 0.728516 0.152344 3.63789 0.152344 7.22852C0.152344 10.8191 3.06172 13.7285 6.65234 13.7285C8.27734 13.7285 9.76172 13.1316 10.9023 12.1473V12.5598C10.9023 12.6598 10.943 12.7535 11.0117 12.8254L14.8055 16.6191C14.9523 16.766 15.1898 16.766 15.3367 16.6191L16.043 15.9129C16.1898 15.766 16.1898 15.5285 16.043 15.3816ZM6.65234 12.2285C3.88984 12.2285 1.65234 9.99102 1.65234 7.22852C1.65234 4.46602 3.88984 2.22852 6.65234 2.22852C9.41484 2.22852 11.6523 4.46602 11.6523 7.22852C11.6523 9.99102 9.41484 12.2285 6.65234 12.2285Z" fill="white" stroke="white" stroke-width="0.0113331"/>
</svg>
