<svg width="64" height="59" viewBox="0 0 64 59" fill="none" xmlns="http://www.w3.org/2000/svg">
<path d="M32.9307 1.00977C34.6905 0.923684 36.45 1.17836 38.0957 1.75781C39.7413 2.33728 41.2358 3.22776 42.4844 4.37012C43.7329 5.51247 44.7082 6.88211 45.3496 8.38867C45.9908 9.89478 46.2849 11.5068 46.2148 13.1221C46.1447 14.7377 45.7108 16.3236 44.9404 17.7783C44.1699 19.2333 43.0789 20.5267 41.7344 21.5732L41.248 21.9512L41.7188 22.3496C43.2836 23.6736 44.3784 25.3975 44.8691 27.2949L45.0293 27.9111L45.5898 27.6104L53.4561 23.3906C54.4591 22.8534 55.6004 22.5694 56.7637 22.5703C58.5174 22.5703 60.1925 23.2164 61.4219 24.3555C62.6498 25.4932 63.332 27.0278 63.332 28.6191V49.2021C63.3325 50.2571 63.0333 51.2962 62.4609 52.2148C61.8881 53.1341 61.0604 53.9023 60.0586 54.4375C59.0567 54.9727 57.917 55.2551 56.7559 55.2539C55.5949 55.2526 54.4565 54.9679 53.4561 54.4307L45.5898 50.2109L45.0283 49.9092L44.8691 50.5273C44.3202 52.6612 43.0091 54.5691 41.1377 55.9385C39.2657 57.3082 36.9447 58.0565 34.5498 58.0566H11.3252C8.50027 58.0566 5.79831 57.0166 3.81152 55.1758C1.82599 53.3361 0.717773 50.8495 0.717773 48.2656V29.5547C0.717911 28.1023 1.06834 26.6667 1.74512 25.3525C2.4221 24.0381 3.40966 22.8769 4.6377 21.9561L5.13477 21.584L4.66504 21.1777C3.40261 20.086 2.39755 18.7681 1.71094 17.3066C1.02442 15.8454 0.670161 14.2705 0.667969 12.6797C0.665791 11.089 1.01584 9.51355 1.69824 8.05078C2.38079 6.58779 3.38225 5.26753 4.6416 4.17285C5.90107 3.07808 7.39172 2.23208 9.02246 1.69043C10.6532 1.14878 12.3879 0.922886 14.1182 1.02734C15.8482 1.13181 17.5355 1.56445 19.0752 2.29688C20.615 3.02942 21.9743 4.04588 23.0684 5.28125L23.4424 5.7041L23.8164 5.28125C24.927 4.0246 26.3112 2.99421 27.8809 2.25781C29.4506 1.52139 31.1708 1.0959 32.9307 1.00977ZM11.3252 24.377C9.86541 24.377 8.45802 24.9145 7.41504 25.8809C6.37108 26.8483 5.77644 28.1689 5.77637 29.5547V48.2656C5.77637 49.6516 6.37089 50.9729 7.41504 51.9404C8.45802 52.9068 9.86541 53.4433 11.3252 53.4434H34.5498C36.0094 53.4432 37.4161 52.9066 38.459 51.9404C39.5033 50.9729 40.0977 49.6517 40.0977 48.2656V29.5547C40.0976 28.1688 39.5031 26.8483 38.459 25.8809C37.4161 24.9146 36.0095 24.3771 34.5498 24.377H11.3252ZM56.7646 27.1797C56.5063 27.1795 56.2502 27.2424 56.0225 27.3643V27.3652L45.4199 33.0527L45.1562 33.1943V44.626L45.4199 44.7676L56.0225 50.4561C56.2502 50.5779 56.5064 50.6408 56.7646 50.6406C57.023 50.6404 57.2792 50.5774 57.5068 50.4551C57.7346 50.3327 57.9281 50.1539 58.0645 49.9336C58.1669 49.768 58.2343 49.5841 58.2607 49.3926L58.2734 49.1992V28.6191C58.2741 28.3598 58.2006 28.1068 58.0645 27.8867C57.9281 27.6666 57.7344 27.4885 57.5068 27.3662C57.2792 27.2439 57.0231 27.1799 56.7646 27.1797ZM13.3447 5.66602C11.3493 5.66603 9.42855 6.40052 8.00684 7.71777C6.584 9.03617 5.77642 10.8327 5.77637 12.7148C5.77637 14.1178 6.22612 15.4857 7.0625 16.6455C7.89852 17.8048 9.08259 18.7034 10.4609 19.2324C11.839 19.7613 13.3537 19.8991 14.8145 19.6299C16.2753 19.3606 17.6221 18.6954 18.6826 17.7129C19.7435 16.7299 20.4705 15.4724 20.7656 14.0977C21.0609 12.7225 20.909 11.2976 20.3311 10.0049C19.7534 8.71291 18.7786 7.61459 17.5352 6.84473C16.2919 6.07503 14.8335 5.66602 13.3447 5.66602ZM36.4238 6.19824C35.0457 5.66935 33.5311 5.53159 32.0703 5.80078C30.6094 6.07002 29.2627 6.73519 28.2021 7.71777C27.1413 8.70067 26.4134 9.9574 26.1182 11.332C25.823 12.707 25.975 14.1323 26.5527 15.4248C27.1304 16.7169 28.1061 17.8151 29.3496 18.585C30.5929 19.3547 32.0513 19.7637 33.54 19.7637C34.5287 19.7636 35.5086 19.5837 36.4238 19.2324C37.339 18.8812 38.1728 18.3652 38.877 17.7129C39.5813 17.0603 40.1429 16.2826 40.5264 15.4248C40.9098 14.567 41.1074 13.6459 41.1074 12.7148C41.1074 11.3119 40.6586 9.94393 39.8223 8.78418C38.9863 7.625 37.8021 6.72724 36.4238 6.19824Z" fill="white" stroke="#252520"/>
</svg>
