<svg width="17" height="17" viewBox="0 0 17 17" fill="none" xmlns="http://www.w3.org/2000/svg">
<path d="M14.368 2.5999C12.5617 1.08115 9.7711 1.30928 8.04297 3.06865C6.31485 1.30928 3.52422 1.07803 1.71797 2.5999C-0.632028 4.57803 -0.288278 7.80303 1.38672 9.5124L6.86797 15.0968C7.18047 15.4155 7.59922 15.5937 8.04297 15.5937C8.48985 15.5937 8.90547 15.4187 9.21797 15.0999L14.6992 9.51553C16.3711 7.80615 16.7211 4.58115 14.368 2.5999ZM13.6305 8.45928L8.14922 14.0437C8.07422 14.1187 8.01172 14.1187 7.93672 14.0437L2.45547 8.45928C1.31485 7.29678 1.0836 5.09678 2.6836 3.7499C3.89922 2.72803 5.77422 2.88115 6.94922 4.07803L8.04297 5.19365L9.13672 4.07803C10.318 2.8749 12.193 2.72803 13.4023 3.74678C14.9992 5.09365 14.7617 7.30615 13.6305 8.45928Z" fill="white"/>
</svg>
