<svg width="77" height="72" viewBox="0 0 77 72" fill="none" xmlns="http://www.w3.org/2000/svg">
<path d="M13.7833 18.4371L33.6198 25.2974C34.504 25.6024 35.275 26.0672 35.9183 26.6748C36.5568 27.28 37.0628 28.0256 37.4218 28.897C37.7808 29.7637 37.947 30.6496 37.9205 31.5332C37.894 32.424 37.6748 33.3003 37.2676 34.1403L32.4512 44.046C30.5574 47.9482 27.5529 51.0854 23.9919 52.8308C20.9512 54.3195 17.5106 54.8013 14.0026 53.8935L9.62713 66.6653L14.629 68.3961C15.2579 68.6115 15.5928 69.3014 15.3759 69.9333C15.1615 70.5651 14.4748 70.9015 13.846 70.6837L7.78155 68.5849L7.70445 68.5607L7.64662 68.5389L7.61771 68.5268L1.56293 66.4329C0.934082 66.2174 0.599177 65.5275 0.816022 64.8957C1.03046 64.2639 1.71713 63.9274 2.34598 64.1453L7.35267 65.8761L11.7281 53.1043C8.40799 51.6519 5.98897 49.144 4.50479 46.0891C2.77003 42.5161 2.32429 38.1854 3.22059 33.9394L5.49504 23.1526C5.68779 22.2328 6.05161 21.4097 6.57204 20.6932C7.09246 19.9815 7.76468 19.386 8.57905 18.9236C9.39342 18.4588 10.2488 18.1853 11.1282 18.103C12.01 18.0231 12.8991 18.132 13.7809 18.4371H13.7833ZM28.7022 3.14773C28.0469 3.04122 27.6035 2.42151 27.7095 1.76308C27.8156 1.10464 28.4324 0.659223 29.0877 0.765735C30.808 1.05138 32.3356 1.88895 33.4848 3.08721C34.6317 4.2879 35.4075 5.85169 35.6244 7.58977C35.7063 8.25063 35.2413 8.85339 34.5859 8.93812C33.9282 9.02042 33.3282 8.55322 33.2439 7.89478C33.0921 6.68684 32.5524 5.59751 31.7549 4.76236C30.9574 3.92963 29.8949 3.34623 28.7022 3.14773ZM39.4697 14.4792C39.4649 15.1449 38.9228 15.6799 38.2602 15.675C37.5976 15.6702 37.0652 15.1255 37.07 14.4598C37.0893 12.0778 37.9085 9.85315 39.2939 8.08602C40.6817 6.31647 42.6429 4.99233 44.9414 4.4162C45.5847 4.25401 46.2401 4.64859 46.3991 5.29492C46.5605 5.94125 46.1678 6.59969 45.5245 6.75946C43.7584 7.20245 42.2526 8.21674 41.1852 9.57961C40.1155 10.9425 39.4842 12.6539 39.4697 14.4792ZM35.54 16.6869C35.7978 17.2993 35.5159 18.0086 34.9064 18.27C34.2968 18.529 33.5908 18.2458 33.3306 17.6334C32.6801 16.1107 31.7501 14.7406 30.6056 13.5908C29.4563 12.4385 28.0926 11.5017 26.5747 10.8481C25.9651 10.5891 25.6808 9.87736 25.9411 9.26492C26.1989 8.65247 26.9072 8.36683 27.5168 8.62827C29.3214 9.40532 30.9405 10.5164 32.2994 11.8793C33.6631 13.247 34.769 14.8786 35.5424 16.6893L35.54 16.6869ZM71.3242 29.6402C66.7054 26.7353 61.8914 27.8222 56.6004 29.0205C52.7503 29.892 48.6615 30.8167 44.1271 30.456L46.2184 34.7576C47.8785 38.1781 50.4878 40.916 53.5646 42.4265C56.3764 43.8039 59.5953 44.1525 62.8407 43.0365L62.8697 43.0268C66.1223 41.9012 68.457 39.633 69.8328 36.8007C70.8712 34.6584 71.3748 32.1916 71.3242 29.6426V29.6402ZM42.8742 27.8803C47.6351 28.5751 51.9937 27.5874 56.0728 26.6651C61.3228 25.4765 66.144 24.3872 71.0302 26.7232L70.929 26.2076L68.6546 15.4208C68.5317 14.8374 68.3076 14.3242 67.9896 13.8885C67.6715 13.4528 67.2499 13.0824 66.7343 12.7895C66.2187 12.4966 65.6862 12.3223 65.1537 12.2739C64.6213 12.2255 64.0647 12.2981 63.4985 12.4942L43.6621 19.3545C43.1007 19.5482 42.6188 19.8338 42.2309 20.2018C41.8382 20.5721 41.5249 21.0393 41.2985 21.5913C41.072 22.1432 40.966 22.6951 40.9828 23.2374C40.9997 23.7699 41.1394 24.3122 41.4021 24.852L42.8742 27.8827V27.8803ZM74.1552 55.9124C74.784 55.6969 75.4683 56.0334 75.6852 56.6628C75.8996 57.2946 75.5647 57.9821 74.9382 58.2L68.8835 60.2939L68.8546 60.306L68.7967 60.3278L68.7196 60.352L62.6552 62.4508C62.0264 62.6662 61.3421 62.3297 61.1253 61.7003C60.9108 61.0685 61.2457 60.381 61.8722 60.1632L66.874 58.4324L62.4986 45.6606C58.9905 46.5684 55.55 46.0891 52.5093 44.6003C48.9482 42.855 45.9462 39.7177 44.05 35.8155L39.2336 25.9099C38.8264 25.0699 38.6072 24.1936 38.5807 23.3027C38.5542 22.4192 38.718 21.5332 39.077 20.6641C39.4336 19.7975 39.942 19.0495 40.5829 18.4443C41.2262 17.8343 41.9972 17.3719 42.8814 17.0669L62.7179 10.2066C63.5997 9.90157 64.4888 9.79264 65.3706 9.87252C66.25 9.9524 67.1053 10.2284 67.9197 10.6931C68.7365 11.1555 69.4087 11.7534 69.9267 12.4627C70.4472 13.1768 70.811 14.0023 71.0037 14.9222L73.2782 25.7089C74.1745 29.9549 73.7311 34.2856 71.994 37.8586C70.5098 40.9135 68.0932 43.4214 64.7707 44.8738L69.1461 57.6456L74.1528 55.9148L74.1552 55.9124ZM5.47336 34.9585C10.362 32.6201 15.1832 33.7119 20.4308 34.9004C24.5075 35.8227 28.8685 36.808 33.627 36.1157L35.1015 33.0849C35.3642 32.5451 35.5039 32.0004 35.5208 31.4678C35.5376 30.928 35.4316 30.3737 35.2051 29.8242C34.9787 29.2722 34.6654 28.8075 34.2727 28.4347C33.8848 28.0691 33.4029 27.7811 32.8415 27.5874L13.0051 20.7271C12.4389 20.531 11.8823 20.4584 11.3498 20.5068C10.8174 20.5552 10.2849 20.7295 9.76929 21.0224C9.25368 21.3153 8.83204 21.6857 8.514 22.1214C8.19837 22.5571 7.97189 23.0728 7.84901 23.6537L5.57455 34.4405L5.47336 34.9561V34.9585ZM32.3789 38.6889C27.8445 39.052 23.7557 38.1273 19.9056 37.2534C14.6146 36.0551 9.80061 34.9682 5.18182 37.8731C5.13123 40.4245 5.63238 42.8889 6.67323 45.0312C8.04899 47.8635 10.3813 50.1317 13.6363 51.2573L13.6653 51.267C16.9107 52.3805 20.1296 52.0344 22.9414 50.6546C26.0182 49.1464 28.6275 46.4086 30.2876 42.9857L32.3789 38.684V38.6889Z" fill="white" stroke="white" stroke-width="1.5"/>
</svg>
