<svg width="22" height="21" viewBox="0 0 22 21" fill="none" xmlns="http://www.w3.org/2000/svg">
<path d="M16.4666 0.112305H5.75267C2.79274 0.112305 0.384766 2.52099 0.384766 5.48179V15.2864C0.384766 18.2472 2.79274 20.6559 5.75267 20.6559H16.4666C19.4266 20.6559 21.8345 18.2472 21.8345 15.2864V5.48179C21.8345 2.52099 19.4266 0.112305 16.4666 0.112305ZM2.27839 5.48179C2.27839 3.56576 3.83721 2.00649 5.75267 2.00649H16.4666C18.3821 2.00649 19.9409 3.56576 19.9409 5.48179V15.2864C19.9409 17.2024 18.3821 18.7617 16.4666 18.7617H5.75267C3.83721 18.7617 2.27839 17.2024 2.27839 15.2864V5.48179Z" fill="white"/>
<path d="M11.1102 15.3777C13.8627 15.3777 16.1033 13.1377 16.1033 10.3832C16.1033 7.62868 13.864 5.38867 11.1102 5.38867C8.35655 5.38867 6.11719 7.62868 6.11719 10.3832C6.11719 13.1377 8.35655 15.3777 11.1102 15.3777ZM11.1102 7.28407C12.8195 7.28407 14.2097 8.67467 14.2097 10.3844C14.2097 12.0942 12.8195 13.4848 11.1102 13.4848C9.40101 13.4848 8.01082 12.0942 8.01082 10.3844C8.01082 8.67467 9.40101 7.28407 11.1102 7.28407Z" fill="white"/>
<path d="M16.5641 6.19533C17.3053 6.19533 17.9094 5.59224 17.9094 4.84962C17.9094 4.10699 17.3065 3.50391 16.5641 3.50391C15.8216 3.50391 15.2188 4.10699 15.2188 4.84962C15.2188 5.59224 15.8216 6.19533 16.5641 6.19533Z" fill="white"/>
</svg>
