<svg width="20" height="19" viewBox="0 0 20 19" fill="none" xmlns="http://www.w3.org/2000/svg">
<path d="M1.18074 3.84617C0.736533 3.43374 0.515625 2.92323 0.515625 2.31581C0.515625 1.70839 0.737714 1.17542 1.18074 0.761812C1.62494 0.349383 2.19674 0.142578 2.89731 0.142578C3.59788 0.142578 4.14724 0.349383 4.59027 0.761812C5.03447 1.17424 5.25538 1.69303 5.25538 2.31581C5.25538 2.93859 5.03329 3.43374 4.59027 3.84617C4.14606 4.2586 3.58252 4.4654 2.89731 4.4654C2.2121 4.4654 1.62494 4.2586 1.18074 3.84617ZM4.88207 6.21202V18.8567H0.887754V6.21202H4.88207Z" fill="#FEFFFC"/>
<path d="M18.1787 7.46106C19.0494 8.40646 19.4842 9.70403 19.4842 11.3561V18.6333H15.6907V11.869C15.6907 11.0359 15.4745 10.3882 15.0433 9.92737C14.6121 9.46649 14.0309 9.23487 13.3031 9.23487C12.5754 9.23487 11.9941 9.4653 11.5629 9.92737C11.1317 10.3882 10.9155 11.0359 10.9155 11.869V18.6333H7.09961V6.17651H10.9155V7.82859C11.3018 7.27789 11.8228 6.84302 12.4773 6.52276C13.1318 6.20251 13.8678 6.04297 14.6865 6.04297C16.1444 6.04297 17.3092 6.51567 18.1787 7.45988V7.46106Z" fill="#FEFFFC"/>
</svg>
