<svg xmlns="http://www.w3.org/2000/svg" xmlns:xlink="http://www.w3.org/1999/xlink">
	<symbol id="arrowdown" viewBox="0 0 11 13">
    <path d="M4.80438 10.3973L4.80438 0.771304C4.80438 0.349639 5.15716 0.0078125 5.5649 0.0078125C5.98492 0.0078125 6.32542 0.359928 6.32542 0.771304L6.32542 10.3783L9.31524 7.38846C9.60549 7.0982 10.092 7.09466 10.3899 7.39256C10.6791 7.68175 10.6897 8.17162 10.394 8.46726L6.15756 12.7037C6.13939 12.7269 6.11973 12.7491 6.09857 12.7703C5.94887 12.92 5.75152 12.9936 5.5554 12.9929C5.35926 12.9936 5.16192 12.92 5.01222 12.7703C4.99106 12.7491 4.9714 12.7269 4.95323 12.7037L0.716754 8.46726C0.421118 8.17162 0.431668 7.68175 0.720858 7.39256C1.01876 7.09466 1.5053 7.0982 1.79555 7.38846L4.80438 10.3973Z" />
  </symbol>
  <symbol id="linkedin" viewBox="0 0 20 19">
    <path d="M1.18074 3.84617C0.736533 3.43374 0.515625 2.92323 0.515625 2.31581C0.515625 1.70839 0.737714 1.17542 1.18074 0.761812C1.62494 0.349383 2.19674 0.142578 2.89731 0.142578C3.59788 0.142578 4.14724 0.349383 4.59027 0.761812C5.03447 1.17424 5.25538 1.69303 5.25538 2.31581C5.25538 2.93859 5.03329 3.43374 4.59027 3.84617C4.14606 4.2586 3.58252 4.4654 2.89731 4.4654C2.2121 4.4654 1.62494 4.2586 1.18074 3.84617ZM4.88207 6.21202V18.8567H0.887754V6.21202H4.88207Z"/>
    <path d="M18.1787 7.46106C19.0494 8.40646 19.4842 9.70403 19.4842 11.3561V18.6333H15.6907V11.869C15.6907 11.0359 15.4745 10.3882 15.0433 9.92737C14.6121 9.46649 14.0309 9.23487 13.3031 9.23487C12.5754 9.23487 11.9941 9.4653 11.5629 9.92737C11.1317 10.3882 10.9155 11.0359 10.9155 11.869V18.6333H7.09961V6.17651H10.9155V7.82859C11.3018 7.27789 11.8228 6.84302 12.4773 6.52276C13.1318 6.20251 13.8678 6.04297 14.6865 6.04297C16.1444 6.04297 17.3092 6.51567 18.1787 7.45988V7.46106Z" />
  </symbol>
  <symbol id="fb" viewBox="0 0 11 22">
    <path d="M7.37293 5.16457V8.12525H10.9991L10.4249 12.1135H7.37293V21.3022C6.76104 21.3879 6.135 21.4326 5.49953 21.4326C4.76601 21.4326 4.04568 21.3736 3.34422 21.2593V12.1135H0V8.12525H3.34422V4.50273C3.34422 2.25531 5.14785 0.432617 7.37388 0.432617V0.434524C7.38048 0.434524 7.38613 0.432617 7.39273 0.432617H11V3.88183H8.64292C7.9424 3.88183 7.37388 4.45607 7.37388 5.16362L7.37293 5.16457Z" />
  </symbol>
  <symbol id="insta" viewBox="0 0 22 21">
    <path d="M16.4666 0.112305H5.75267C2.79274 0.112305 0.384766 2.52099 0.384766 5.48179V15.2864C0.384766 18.2472 2.79274 20.6559 5.75267 20.6559H16.4666C19.4266 20.6559 21.8345 18.2472 21.8345 15.2864V5.48179C21.8345 2.52099 19.4266 0.112305 16.4666 0.112305ZM2.27839 5.48179C2.27839 3.56576 3.83721 2.00649 5.75267 2.00649H16.4666C18.3821 2.00649 19.9409 3.56576 19.9409 5.48179V15.2864C19.9409 17.2024 18.3821 18.7617 16.4666 18.7617H5.75267C3.83721 18.7617 2.27839 17.2024 2.27839 15.2864V5.48179Z" />
    <path d="M11.1102 15.3777C13.8627 15.3777 16.1033 13.1377 16.1033 10.3832C16.1033 7.62868 13.864 5.38867 11.1102 5.38867C8.35655 5.38867 6.11719 7.62868 6.11719 10.3832C6.11719 13.1377 8.35655 15.3777 11.1102 15.3777ZM11.1102 7.28407C12.8195 7.28407 14.2097 8.67467 14.2097 10.3844C14.2097 12.0942 12.8195 13.4848 11.1102 13.4848C9.40101 13.4848 8.01082 12.0942 8.01082 10.3844C8.01082 8.67467 9.40101 7.28407 11.1102 7.28407Z" />
    <path d="M16.5641 6.19533C17.3053 6.19533 17.9094 5.59224 17.9094 4.84962C17.9094 4.10699 17.3065 3.50391 16.5641 3.50391C15.8216 3.50391 15.2188 4.10699 15.2188 4.84962C15.2188 5.59224 15.8216 6.19533 16.5641 6.19533Z" />
  </symbol> 
  <symbol id="angleleft" viewBox="0 0 14 21">
    <path d="M11.585 1.14062L12.3477 1.87695L12.7178 2.23438L12.3496 2.59375L4.2373 10.5234L12.3477 18.4023L12.7168 18.7617L12.3477 19.1201L11.5869 19.8584L11.2383 20.1973L10.8906 19.8584L2.68262 11.8848L2.41504 11.626L1.65234 10.8896L1.28223 10.5322L1.65039 10.1729L10.8877 1.14258L11.2354 0.802734L11.585 1.14062Z" fill="#282828" stroke="#282828"/>
  </symbol>
  <symbol id="angleright" viewBox="0 0 14 21">
    <path d="M2.41504 1.14062L1.65234 1.87695L1.28223 2.23438L1.65039 2.59375L9.7627 10.5234L1.65234 18.4023L1.2832 18.7617L1.65234 19.1201L2.41309 19.8584L2.76172 20.1973L3.10938 19.8584L11.3174 11.8848L11.585 11.626L12.3477 10.8896L12.7178 10.5322L12.3496 10.1729L3.1123 1.14258L2.76465 0.802734L2.41504 1.14062Z" fill="#282828" stroke="#282828"/>
  </symbol>
  <symbol id="angleRight" viewBox="0 0 17 28">
    <path d="M2.00144 1.75781L14 13.7358L2 25.7578"  stroke-width="4"/>
  </symbol>
  <symbol id="explore" viewBox="0 0 12 13">
    <path fill-rule="evenodd" clip-rule="evenodd" d="M9.49885 2.17607L0 11.3986L1.06845 12.5L10.2759 3.42115V10.9874H11.9757L12 0.523944H10.3002L1.33975 0.5V2.17607H9.49885Z" />
  </symbol>

  <symbol id="user" viewBox="0 0 17 17">
    <path d="M10.8742 10.1465C9.97734 10.1465 9.54609 10.6465 8.07422 10.6465C6.60234 10.6465 6.17422 10.1465 5.27422 10.1465C2.95547 10.1465 1.07422 12.0277 1.07422 14.3465V15.1465C1.07422 15.9746 1.74609 16.6465 2.57422 16.6465H13.5742C14.4023 16.6465 15.0742 15.9746 15.0742 15.1465V14.3465C15.0742 12.0277 13.193 10.1465 10.8742 10.1465ZM13.5742 15.1465H2.57422V14.3465C2.57422 12.859 3.78672 11.6465 5.27422 11.6465C5.73047 11.6465 6.47109 12.1465 8.07422 12.1465C9.68985 12.1465 10.4148 11.6465 10.8742 11.6465C12.3617 11.6465 13.5742 12.859 13.5742 14.3465V15.1465ZM8.07422 9.64648C10.5586 9.64648 12.5742 7.63086 12.5742 5.14648C12.5742 2.66211 10.5586 0.646484 8.07422 0.646484C5.58984 0.646484 3.57422 2.66211 3.57422 5.14648C3.57422 7.63086 5.58984 9.64648 8.07422 9.64648ZM8.07422 2.14648C9.72734 2.14648 11.0742 3.49336 11.0742 5.14648C11.0742 6.79961 9.72734 8.14648 8.07422 8.14648C6.42109 8.14648 5.07422 6.79961 5.07422 5.14648C5.07422 3.49336 6.42109 2.14648 8.07422 2.14648Z" stroke="white" stroke-width="0.0113658"/>
  </symbol>
  <symbol id="wishlist" viewBox="0 0 17 17">
    <path d="M14.368 2.5999C12.5617 1.08115 9.7711 1.30928 8.04297 3.06865C6.31485 1.30928 3.52422 1.07803 1.71797 2.5999C-0.632028 4.57803 -0.288278 7.80303 1.38672 9.5124L6.86797 15.0968C7.18047 15.4155 7.59922 15.5937 8.04297 15.5937C8.48985 15.5937 8.90547 15.4187 9.21797 15.0999L14.6992 9.51553C16.3711 7.80615 16.7211 4.58115 14.368 2.5999ZM13.6305 8.45928L8.14922 14.0437C8.07422 14.1187 8.01172 14.1187 7.93672 14.0437L2.45547 8.45928C1.31485 7.29678 1.0836 5.09678 2.6836 3.7499C3.89922 2.72803 5.77422 2.88115 6.94922 4.07803L8.04297 5.19365L9.13672 4.07803C10.318 2.8749 12.193 2.72803 13.4023 3.74678C14.9992 5.09365 14.7617 7.30615 13.6305 8.45928Z" />
  </symbol>
  <symbol id="store" viewBox="0 0 17 17">
    <path d="M12.0156 4.62891C12.0156 2.42328 10.2212 0.628906 8.01563 0.628906C5.81 0.628906 4.01563 2.42328 4.01563 4.62891H1.01562V14.1289C1.01562 15.5096 2.13491 16.6289 3.51563 16.6289H12.5156C13.8963 16.6289 15.0156 15.5096 15.0156 14.1289V4.62891H12.0156ZM8.01563 2.12891C9.39413 2.12891 10.5156 3.25041 10.5156 4.62891H5.51563C5.51563 3.25041 6.63713 2.12891 8.01563 2.12891ZM13.5156 14.1289C13.5156 14.6803 13.067 15.1289 12.5156 15.1289H3.51563C2.96422 15.1289 2.51563 14.6803 2.51563 14.1289V6.12891H4.01563V7.37891C4.01563 7.79313 4.35141 8.12891 4.76563 8.12891C5.17984 8.12891 5.51563 7.79313 5.51563 7.37891V6.12891H10.5156V7.37891C10.5156 7.79313 10.8514 8.12891 11.2656 8.12891C11.6798 8.12891 12.0156 7.79313 12.0156 7.37891V6.12891H13.5156V14.1289Z" stroke="white" stroke-width="0.0113658"/>
  </symbol>
  <symbol id="search" viewBox="0 0 17 17">
    <path d="M16.043 15.3816L12.2492 11.5879C12.1773 11.516 12.0836 11.4785 11.9836 11.4785H11.5711C12.5555 10.3379 13.1523 8.85352 13.1523 7.22852C13.1523 3.63789 10.243 0.728516 6.65234 0.728516C3.06172 0.728516 0.152344 3.63789 0.152344 7.22852C0.152344 10.8191 3.06172 13.7285 6.65234 13.7285C8.27734 13.7285 9.76172 13.1316 10.9023 12.1473V12.5598C10.9023 12.6598 10.943 12.7535 11.0117 12.8254L14.8055 16.6191C14.9523 16.766 15.1898 16.766 15.3367 16.6191L16.043 15.9129C16.1898 15.766 16.1898 15.5285 16.043 15.3816ZM6.65234 12.2285C3.88984 12.2285 1.65234 9.99102 1.65234 7.22852C1.65234 4.46602 3.88984 2.22852 6.65234 2.22852C9.41484 2.22852 11.6523 4.46602 11.6523 7.22852C11.6523 9.99102 9.41484 12.2285 6.65234 12.2285Z" stroke="white" stroke-width="0.0113331"/>
  </symbol>
  <symbol id="phone" viewBox="0 0 29 50">
    <path d="M21.8691 0H7.13089C5.24008 0.00139405 3.42711 0.765402 2.0901 2.12424C0.7531 3.48309 0.00137164 5.32568 0 7.24737V42.7526C0.00137164 44.6743 0.7531 46.5169 2.0901 47.8758C3.42711 49.2346 5.24008 49.9986 7.13089 50H21.8691C23.7599 49.9986 25.5729 49.2346 26.9099 47.8758C28.2469 46.5169 28.9986 44.6743 29 42.7526V7.24737C28.9986 5.32568 28.2469 3.48309 26.9099 2.12424C25.5729 0.765402 23.7599 0.00139405 21.8691 0ZM26.4107 42.7526C26.408 43.976 25.9286 45.1484 25.0775 46.0134C24.2264 46.8784 23.0728 47.3656 21.8691 47.3684H7.13089C5.92722 47.3656 4.77364 46.8784 3.92251 46.0134C3.07139 45.1484 2.59202 43.976 2.58929 42.7526V7.24737C2.59202 6.02404 3.07139 4.85161 3.92251 3.98658C4.77364 3.12156 5.92722 2.63436 7.13089 2.63158H7.50375C7.32351 2.99094 7.23721 3.39135 7.25313 3.79438C7.26905 4.19741 7.38665 4.58951 7.59465 4.93303C7.80265 5.27654 8.09405 5.55994 8.44088 5.75601C8.78771 5.95207 9.17831 6.05422 9.57518 6.05263H19.4145C19.8113 6.05422 20.2019 5.95207 20.5488 5.75601C20.8956 5.55994 21.187 5.27654 21.395 4.93303C21.603 4.58951 21.7206 4.19741 21.7365 3.79438C21.7524 3.39135 21.6661 2.99094 21.4859 2.63158H21.8587C23.0642 2.63158 24.2205 3.11754 25.0738 3.98287C25.9272 4.8482 26.408 6.02222 26.4107 7.24737V42.7526Z" />
  </symbol>
  <symbol id="location" viewBox="0 0 41 50">
    <circle cx="20.5" cy="21" r="7.5" stroke="white" stroke-width="3"/>
    <path d="M20.5 1.5C30.9662 1.50007 39.4998 10.0898 39.5 20.6816C39.5 28.4108 35.0858 35.2004 30.3623 40.2285C25.6656 45.228 20.8635 48.2714 20.5107 48.4922L20.5059 48.4951C20.5043 48.4961 20.5023 48.4955 20.501 48.4961L20.4902 48.4893L20.1582 48.2715C18.9393 47.4544 14.7472 44.5104 10.6357 40.0996C5.90636 35.0259 1.5001 28.243 1.5 20.6826C1.5 10.0905 10.0336 1.5 20.5 1.5Z" stroke="white" stroke-width="3"/>
  </symbol>
  <symbol id="email" viewBox="0 0 69 50">
    <path d="M7.77825 0H61.2217C63.3644 0 65.3089 0.929669 66.7171 2.42648C68.1254 3.92329 69 5.99307 69 8.26755V41.7325C69 44.0069 68.1254 46.0738 66.7171 47.5735C65.3089 49.0703 63.3616 50 61.2217 50H7.77825C5.63564 50 3.69109 49.0703 2.28287 47.5735C0.874648 46.0767 0 44.0069 0 41.7325V8.26755C0 5.99307 0.874648 3.9262 2.28287 2.42648C3.69109 0.929669 5.63839 0 7.77825 0ZM11.076 15.0646C10.3692 14.4887 10.2344 13.4158 10.7735 12.6616C11.3153 11.9103 12.3247 11.7641 13.0343 12.3371L28.1755 24.6072C30.0706 26.142 32.2874 26.9108 34.4988 26.9108C36.7129 26.9108 38.9298 26.142 40.8221 24.6072L64.7429 5.22499C64.6439 5.09636 64.5393 4.97357 64.4293 4.85664C63.6042 3.97958 62.4682 3.43586 61.2196 3.43586H7.77607C6.5274 3.43586 5.39145 3.98255 4.56631 4.85664C3.74116 5.73369 3.22962 6.94109 3.22962 8.26831V41.7332C3.22962 43.0604 3.74395 44.2678 4.56631 45.1449C5.39145 46.0219 6.5274 46.5657 7.77607 46.5657H61.2196C62.4682 46.5657 63.6042 46.019 64.4293 45.1449C65.2545 44.2678 65.766 43.0604 65.766 41.7332V8.71286L42.7803 27.3384C40.2994 29.3468 37.3977 30.3525 34.4957 30.3525C31.594 30.3525 28.6923 29.3468 26.2111 27.3384L11.0699 15.0683L11.076 15.0646Z" />
  </symbol>
  <symbol id="angleup" viewBox="0 0 12 7">
    <path d="M11.2825 5.22074L6.28255 0.220767C6.21287 0.150766 6.13008 0.095366 6.03891 0.057466C5.94775 0.0196662 5.85001 0.000166416 5.7513 0.000166416C5.65259 0.000166416 5.55485 0.0196662 5.46368 0.057466C5.37252 0.095366 5.28973 0.150766 5.22005 0.220767L0.22005 5.22074C0.0791501 5.36163 0 5.55273 0 5.75199C0 5.95124 0.0791501 6.14234 0.22005 6.28324C0.36094 6.42413 0.55204 6.50329 0.7513 6.50329C0.95056 6.50329 1.14165 6.42413 1.28255 6.28324L5.75192 1.81386L10.2213 6.28386C10.3622 6.42476 10.5533 6.50391 10.7526 6.50391C10.9518 6.50391 11.143 6.42476 11.2838 6.28386C11.4247 6.14296 11.5038 5.95187 11.5038 5.75261C11.5038 5.55335 11.4247 5.36226 11.2838 5.22136L11.2825 5.22074Z" />
  </symbol>
</svg>